<?xml version="1.0" standalone="no"?>
<!DOCTYPE svg PUBLIC "-//W3C//DTD SVG 1.1//EN" "http://www.w3.org/Graphics/SVG/1.1/DTD/svg11.dtd" >
<svg xmlns="http://www.w3.org/2000/svg">
<metadata></metadata>
<defs>
<font id="ramsteinzregular" horiz-adv-x="620" >
<font-face units-per-em="2048" ascent="1536" descent="-512" />
<missing-glyph horiz-adv-x="862" />
<glyph horiz-adv-x="0" />
<glyph horiz-adv-x="682" />
<glyph horiz-adv-x="0" />
<glyph horiz-adv-x="0" />
<glyph unicode="&#xd;" horiz-adv-x="862" />
<glyph unicode=" "  horiz-adv-x="862" />
<glyph unicode="&#x09;" horiz-adv-x="862" />
<glyph unicode="&#xa0;" horiz-adv-x="862" />
<glyph unicode="!" horiz-adv-x="671" d="M156 76q5 17 17.5 27.5t25.5 7.5q14 -3 25.5 -23.5t8.5 -38.5q-4 -19 -24.5 -35.5t-34.5 -13.5q-11 3 -17 29.5t-1 46.5zM180 172q31 227 123 571t139 476q3 5 13 36.5t20.5 66t11.5 36.5q1 4 34 -14t61.5 -49t19.5 -58q-19 -59 -74.5 -191.5t-108 -257.5t-109 -295.5 t-83.5 -314.5q0 -1 -1 -4t-1.5 -4t-1.5 -3.5t-1.5 -3.5t-2 -3t-3 -3t-3.5 -2t-4.5 -1.5t-6 -1t-7.5 -0.5q-5 1 -9 6t-5 10z" />
<glyph unicode="&#x22;" horiz-adv-x="315" d="M0 1184q5 8 21.5 32t25.5 39t19.5 39.5t13.5 48.5q-32 16 -29 72q0 38 18 67t40 29q24 0 36.5 -20.5t13.5 -48t-1 -50.5t-6 -32q-24 -73 -62.5 -129t-83.5 -60zM131 1184q6 9 22 32.5t25.5 38.5t20 39.5t14.5 48.5q-34 15 -31 72q0 37 18.5 66.5t39.5 29.5 q24 0 36.5 -20.5t13.5 -48t-1 -50.5t-6 -32q-21 -72 -60.5 -128.5t-85.5 -60.5z" />
<glyph unicode="#" horiz-adv-x="731" d="M12 690l11 37q24 1 78 4t83 4q0 43 -4 129q-102 -4 -153 -10l10 37q45 4 143 8q0 130 2 191l45 -9v-88q-2 -29 -2 -92q98 4 154 4q0 126 2 185l45 -9v-88q-2 -27 -2 -88q127 0 188 -4l-10 -39q-78 4 -88 4q-27 2 -90 2q0 -19 1 -60.5t1 -62.5v-6q115 0 172 -4l-10 -37 q-22 0 -52 1t-36 1q-23 2 -72 2q9 -135 16 -198l-45 12q-6 57 -14 186q-86 0 -133 -2h-23q7 -103 15 -196l-43 12q-9 82 -15 182q-60 0 -174 -8zM225 866q0 -19 1 -59.5t1 -61.5v-8q51 2 156 2q0 21 -1 63.5t-1 65.5q-76 0 -115 -2h-41z" />
<glyph unicode="$" horiz-adv-x="999" d="M6 401q10 75 82 75t172 -50q2 4 83 441.5t83 439.5q3 2 16 14.5t22.5 20t10.5 1.5t-89 -466.5t-93 -468.5q17 -9 51 -35q10 63 91 511.5t87 454.5q15 13 20 10.5t11 -30.5q4 -17 -76.5 -476t-89.5 -483q0 -2 -0.5 -4.5t-3.5 -10t-8 -11.5t-13.5 -7.5t-21.5 1.5 q-168 123 -250 99q-55 -17 -45 -91q7 -50 43 -109q18 -30 68.5 -34.5t111.5 16.5t119 56.5t97.5 92.5t41.5 119q1 29 -40 63t-98.5 67t-114 67.5t-94 76.5t-32.5 83q22 187 153 332q103 113 217 143t169 -45q8 -10 14 -23q12 -24 17.5 -102t-5.5 -149.5t-40 -71.5h-15 l19 106q2 14 3 37t-6.5 73t-27.5 76q-38 51 -141 -42.5t-179.5 -224t-50.5 -171.5q14 -22 62 -51t102 -59t106 -66.5t83 -87.5t24 -109q-8 -64 -45.5 -117.5t-90.5 -86.5t-115.5 -54t-120 -25t-105 4.5t-70.5 29.5q-5 4 -13 10.5t-28 30.5t-34 51t-22 70t-1 89z" />
<glyph unicode="%" horiz-adv-x="1265" d="M2.5 979q11.5 85 45.5 171.5t97.5 155t139.5 89.5q18 6 22 6q5 -1 14 6t15.5 10.5t20 -10.5t30.5 -49q17 -33 123.5 -53.5t203 -25.5t105.5 -1q3 0 8 -6t9 -12l4 -7q12 -6 14 -22t-6 -38.5t-22 -50.5t-33.5 -61.5t-41 -68t-45 -72t-44.5 -72t-40.5 -70.5t-31.5 -65 q-10 -23 -39 -86t-55.5 -126t-46.5 -120l-21 -63l-31 -82q-22 -65 -41.5 -117t-28.5 -76.5t-10 -27.5l-26 -23q-39 -4 -53 11t-7 43q2 9 10 28.5t11 28.5q21 58 62 174t73 202.5t70 176.5q30 70 140.5 273t137.5 245q8 12 -8.5 23.5t-55 21.5t-77 18.5t-93 19t-85.5 17.5 q16 -82 3.5 -163t-50 -153.5t-84 -125.5t-98 -80.5t-91.5 -17.5q-56 13 -80.5 76.5t-13 148.5zM84 880q4 -102 56 -100q6 0 12 2q65 29 120 94.5t86 135t41 131.5q10 68 1 108.5t-31 58.5t-45 23.5t-40 3.5l-18 -2q-76 -38 -134 -193q-53 -144 -48 -262zM638 179q-4 43 5 79 l14 68q26 92 76.5 172.5t119 127t132.5 31.5q96 -22 100.5 -165.5t-78.5 -292t-208 -181.5q-9 -9 -23 -6q-47 0 -79 25t-43.5 62t-15.5 80zM670.5 150.5q6.5 -42.5 30 -59.5t49 -20.5t45.5 1.5l20 4q78 38 136 193q52 142 48 260q-3 104 -56 102q-5 0 -11 -2 q-64 -28 -118.5 -96t-84 -133.5t-47.5 -131.5q-18 -75 -11.5 -117.5z" />
<glyph unicode="&#x26;" horiz-adv-x="634" d="M0.5 275q1.5 62 18.5 115.5t40 86.5q11 16 28 34.5t35.5 35.5t38 33.5t37.5 30.5t32 24.5t23 16.5l9 7l43 -147l-10 23l10 -23l-17 -13q-16 -13 -43 -40.5t-48 -57.5q-29 -44 -40.5 -117.5t4.5 -133.5t58 -64q42 -3 97 79.5t92.5 172.5t46.5 137q19 110 -15 139 q4 45 27 45q11 0 22.5 -24t16 -68t-7.5 -106q-5 -29 -21 -78t-44 -110.5t-60.5 -115t-75 -90t-84.5 -36.5q-80 0 -131 36.5t-67 91t-14.5 116.5zM55 1117q44 112 170 112q38 0 66 -14t43.5 -40.5t24.5 -58.5t9 -73t-2.5 -79t-12 -82t-16.5 -76t-17.5 -67.5t-15 -50.5 t-9.5 -29q-15 -44 -39 15l-4 12q13 31 28 83.5t27 123.5t12.5 131t-23 102.5t-73.5 42.5q-102 0 -63 -198q31 -152 113 -319q48 -97 65 -97q5 -4 10.5 -10t6.5 -21.5t-17 -27.5q-69 -45 -153 55q-82 97 -125 260q-51 189 -5 306z" />
<glyph unicode="'" horiz-adv-x="245" d="M0 1188q6 10 22 34t25 39.5t19.5 40t13.5 48.5q-32 16 -29 71q0 38 18 67.5t40 29.5q24 0 36.5 -20.5t13.5 -48t-1 -51t-6 -32.5q-24 -73 -62.5 -128.5t-83.5 -59.5z" />
<glyph unicode="(" horiz-adv-x="581" d="M21 515.5q40 237.5 126.5 448.5t174 355t139.5 180q55 37 45 -2q-12 -47 -92 -162q-70 -71 -141.5 -214.5t-125.5 -323t-75 -372.5t10 -362q22 -116 57.5 -187.5t102.5 -147.5l-9 -39q-156 118 -210 364q-42 225 -2 462.5z" />
<glyph unicode=")" horiz-adv-x="729" d="M0 -305l12 39q61 15 83.5 21t70 22t74 32t62.5 44t69 65q91 102 146 252.5t70 306.5t7 315.5t-35.5 289.5t-66.5 218l-15 105q-12 127 20 116q15 -6 38 -40q23 -35 49 -113t48 -190.5t36.5 -242t9.5 -273.5t-28.5 -279t-81.5 -264.5t-146 -224.5q-184 -193 -422 -199z " />
<glyph unicode="*" horiz-adv-x="765" d="M98 793q2 18 101 5t112 -6q8 5 -2 17q-182 248 -149 244q9 0 33 -19q5 -4 8 -7t5.5 -6t4.5 -5q26 -22 63.5 -77.5t64.5 -95t38 -36.5q10 3 12 59t0.5 111t3.5 86q4 45 18 52q9 4 13 -13q1 -7 2 -17q2 -25 -3 -99t-7.5 -119.5t6.5 -63.5q8 -5 51.5 50.5t86.5 118.5l44 62 q101 87 -37 -111q-17 -24 -46 -64q-17 -24 -21 -30q-20 -27 26 -29q12 -1 39 0q58 2 58 -9q-1 -11 -65 -9q-74 2 -80 -12q-3 -7 5 -18q7 -10 38 -51q130 -172 112 -172q-6 0 -25 14q-3 2 -44 56t-82.5 104t-49.5 47q-7 -4 -11 -50.5t-6 -119t-3 -86.5q-3 -29 -19 -28 q-17 2 -27 32q-3 9 -4 20q-1 19 1 76t2 100t-7 47q-6 3 -44.5 -44t-77.5 -99t-43 -55q-45 -38 -26 3q27 59 117 176l13 17q17 22 -29 29q-7 1 -104 6q-67 3 -66 19z" />
<glyph unicode="+" horiz-adv-x="608" d="M0 399l10 58q236 37 525 24l-9 -63q-71 4 -80 6q-170 0 -227 -4q-108 -3 -219 -21zM225 735l58 -10q37 -235 24 -526l-63 10q4 71 6 80q0 170 -4 227q-3 109 -21 219z" />
<glyph unicode="," horiz-adv-x="360" d="M0 -158q8 9 44 42t56 60t27 58q-50 15 -47 72q0 38 29 67t63 29q37 0 57 -20.5t22 -48.5t-1 -50.5t-8 -32.5q-37 -72 -99.5 -128t-134.5 -60z" />
<glyph unicode="-" d="M0 297l10 57q256 40 525 25l-9 -64q-20 2 -46.5 4t-33.5 3q-184 0 -227 -3q-127 -7 -219 -22z" />
<glyph unicode="." horiz-adv-x="282" d="M4 125q9 43 40 68t65 16q33 -7 48.5 -43.5t4.5 -79.5q-10 -44 -40.5 -68t-64.5 -18q-33 9 -48.5 46t-4.5 79z" />
<glyph unicode="/" horiz-adv-x="837" d="M5 -108q-16 20 22 61q102 115 295 620q70 176 134 351.5t95 268.5t35 110q6 20 17 31.5t23 13.5t23 0t18 -6t7 -7q-1 -7 -5 -21.5t-5 -19.5q-15 -57 -62.5 -198.5t-121 -336.5t-151.5 -376.5t-161 -323t-141 -172.5q-12 -7 -22 5z" />
<glyph unicode="0" horiz-adv-x="886" d="M2 778q1 17 2 33q4 61 8 110t18.5 136t34.5 152.5t57 139t84.5 117t119.5 65.5t159 5q85 -11 156 -100q72 -94 102 -246q40 -190 19 -473q-18 -262 -72 -449q-44 -150 -104 -233q-64 -86 -131 -96q-8 -2 -17 -2h-2l-4 -1q-137 -25 -242 64q-215 182 -188 778zM184 809 q-8 -153 1.5 -280.5t29 -209t48.5 -144.5t55.5 -95t55 -52.5t42.5 -25.5t22 -6q4 0 9.5 1t17.5 6t24 13.5t29 25.5t33 40q125 180 160 643q38 491 -109 672q-26 34 -56.5 54.5t-47.5 24.5l-17 3h-4l-4 2l-5 1q-5 1 -11.5 1.5t-16.5 0t-20 -3t-23 -8.5t-26 -16 q-159 -114 -187 -647z" />
<glyph unicode="1" horiz-adv-x="485" d="M0 -72q-3 9 6 35t21 33q7 4 44.5 18t102 33t139.5 32.5t158 18.5t158 -10q1 -2 2 -6t3 -13t1 -14t-17.5 -20t-32.5 -27l-16 -12l-20 33q-4 6 -24 10t-155 -22.5t-356 -98.5q-10 0 -14 10zM68 926q0 9 8.5 48t29 104t48 134t71.5 143.5t94 125.5q21 -3 31 -13 q17 -15 21 -37t-1 -37l-5 -14l-39 2q-7 -1 -21.5 -15.5t-66.5 -141.5t-113 -351q0 -1 -1 -2t-5.5 -3t-9.5 -1q-9 2 -25.5 23t-15.5 35zM291 61q24 1151 24 1420q5 3 12.5 7t29 13t40 13.5t39 3t31.5 -12.5q12 -11 12.5 -150t-7 -342.5t-16 -398t-17 -363t-9.5 -190.5 q-1 -30 -35.5 -30t-68.5 15z" />
<glyph unicode="2" horiz-adv-x="835" d="M0 -41q-3 9 6 35t21 33q3 3 34 12q-26 7 -26 33q0 35 33 92t87 126t119 151t130 178.5t119 196t87 216.5t33 228q0 110 -33.5 153t-109.5 43q-42 0 -103 -51.5t-117 -146t-73 -227.5t29 -296q-4 -5 -11 -11t-26 -7t-35 18q-15 18 -24 66t-9 114.5t9 142.5t35 152 t64 139.5t101 109t141 57.5q15 2 32 2.5t47 -2.5t59.5 -16t60.5 -34.5t59 -62.5t47 -96q21 -62 22 -131.5t-18 -138.5t-49.5 -140.5t-74 -144.5t-89.5 -143t-98 -143t-98 -137t-91 -133t-75 -124q374 73 563 34q1 -2 2.5 -6t4 -12.5t1.5 -13.5t-17 -20t-32 -28l-16 -12 l-21 33q-8 3 -23.5 6t-75 5.5t-131 -4t-194.5 -32.5t-262 -71q-10 0 -14 8z" />
<glyph unicode="3" horiz-adv-x="847" d="M-0.5 107.5q0.5 38.5 7.5 77t22 74t30.5 63.5t30.5 46t25 21q28 7 41.5 1t15.5 -17l2 -11q-51 -54 -79.5 -104t-34 -88t1.5 -71t24.5 -56t39 -40.5t41 -26.5t34.5 -11q15 0 41 -2.5t60 5t70 17.5t71.5 36t63.5 60t47 89.5t21 124.5t-13 122t-40.5 82.5t-57.5 49t-64.5 25 t-59.5 7.5t-44 -1l-17 -2q-14 9 -19 15.5t-2.5 10.5t7 6.5t9.5 3.5h5q70 16 131 16t104 -13.5t78.5 -34t58 -48.5t38.5 -54t25 -53.5t12.5 -43.5t4.5 -27q2 -21 2.5 -40.5t-4.5 -69.5t-18.5 -90.5t-47 -90.5t-81.5 -83t-129 -55t-185 -19q-72 2 -125.5 19.5t-82.5 44.5 t-45 62t-15.5 73.5zM12.5 936.5q1.5 85.5 23.5 181.5t59 179t106.5 144.5t160.5 76.5q16 2 33 2.5t47.5 -2.5t60 -17t61 -36.5t59.5 -65.5t47 -101q20 -62 20.5 -132t-14.5 -135.5t-46.5 -142t-66 -142t-82.5 -144.5q-13 -21 -59.5 -23t-86.5 7l-40 8q231 357 231 653 q0 115 -34 161t-109 46q-43 0 -104.5 -54t-117.5 -152.5t-73 -237t29 -308.5q-1 -2 -4 -4.5t-10.5 -8t-15.5 -7t-19 2.5t-21 17q-18 21 -27 85t-7.5 149.5z" />
<glyph unicode="4" horiz-adv-x="784" d="M0 596q0 8 24.5 83t70.5 192.5t102.5 239t131.5 235.5t146 170q21 -3 31 -11q16 -16 19 -38t-2 -36l-5 -14q-6 -20 -37 0q-10 6 -47 -38t-89.5 -129.5t-106.5 -192.5t-104 -245.5t-75 -268.5l-2 -2t-5.5 -2t-8.5 0q-9 2 -26 22.5t-17 34.5zM35 547q-3 9 4 34t18 33 q10 5 46 18t106.5 29.5t148.5 26t176.5 3.5t184.5 -34q1 -2 2.5 -5.5t4 -11.5t1.5 -13q-3 -23 -19 -38.5t-31 -19.5l-15 -4l-21 33q-6 5 -19.5 12t-64 18t-111.5 10t-167 -25t-226 -74q-15 -4 -18 8zM457 -31q30 600 30 869q5 3 12.5 7t29 13t40.5 14t39 4t31 -12 q12 -12 12 -95.5t-8 -203t-18 -238.5t-19 -223.5t-10 -134.5t-35.5 -30t-68.5 15z" />
<glyph unicode="5" horiz-adv-x="831" d="M0.5 183.5q-0.5 39.5 6 79t20.5 75t29 63.5t30 45.5t25 20.5q27 8 40 2.5t15 -16.5l2 -11q-63 -72 -90 -139.5t-20 -116.5t31 -87.5t57.5 -59.5t66.5 -25q28 -7 64.5 -2t74 14t75 37t68 66t51 102t25.5 144q6 95 -3 165t-28 107.5t-45.5 59t-57.5 22.5t-62 -5.5 t-60 -21.5t-51 -28.5t-36 -23.5l-13 -11q-36 -20 -61.5 -16t-38.5 22t-6 37v4q67 332 86 627q-34 -17 -48 -27q-13 -6 -20 4v2q-5 5 -0.5 34.5t14.5 37.5q11 11 58 31q0 55 2 82q20 -3 30 -13q16 -16 27 -41q289 120 535 76q12 -19 12 -33q0 -24 -14.5 -41.5t-28.5 -23.5 l-14 -6l-25 30q-6 3 -17 8t-52.5 11t-90 2t-130 -27.5t-171.5 -68.5q-6 -207 -76 -615q111 57 207.5 76.5t175.5 -0.5t127.5 -95.5t55.5 -203.5q1 -19 0.5 -48.5t-9 -91t-25 -118t-53 -119t-87 -105t-133 -65t-185.5 -10.5q-69 8 -120.5 30t-79.5 53t-43.5 68.5t-16 77z" />
<glyph unicode="6" horiz-adv-x="806" d="M1 696q2 56 5 115q4 62 8 110.5t18 136t34 152.5t56.5 138.5t84 117t119.5 65.5t159 5q92 -10 156 -100q16 -25 8 -33.5t-27 -6.5l-18 1q-26 34 -57.5 54.5t-45.5 24t-20 3.5h-4l-2 2l-5 1q-5 1 -11.5 1.5t-16.5 0t-20.5 -3t-24 -8.5t-26.5 -16q-67 -49 -119 -200.5 t-66 -446.5q-8 -153 1.5 -280.5t29 -209t48.5 -144.5t55.5 -95t55 -52.5t42.5 -25.5t22 -6q3 0 8.5 1t17.5 6t24 13.5t29 25.5t32 40q26 38 65 181q71 267 38 418q-46 213 -304 84q-75 -38 -168 -106v78q112 70 201.5 102.5t147.5 29t99.5 -32t61.5 -74.5t29.5 -104.5 t7.5 -116.5t-9 -115t-15 -95t-15 -63q-44 -150 -104 -233q-61 -86 -131 -96q-8 -2 -17 -2h-2l-3 -1q-127 -24 -229 54q-213 162 -203 706z" />
<glyph unicode="7" horiz-adv-x="897" d="M0 1315q-2 9 7.5 33.5t21.5 31.5q11 6 93 28t205.5 47.5t248.5 34t221 -12.5q1 -2 2 -5.5t3 -12.5t1 -15q-4 -22 -21.5 -35.5t-33.5 -16.5l-15 -3l-18 32q-8 1 -24 1t-77 -4t-134.5 -14.5t-199.5 -36t-268 -62.5q-8 0 -12 10zM197 614q-4 9 4 34.5t20 33.5 q13 7 66.5 25.5t147.5 42.5t191 31t197 -9q1 -2 2.5 -5.5t4 -12.5t1.5 -15q-1 -5 -17 -20t-32 -27l-16 -12l-21 33q-4 6 -24 10t-155 -22t-357 -97q-8 0 -12 10zM334 8q262 1187 313 1452q5 2 13.5 4.5t31.5 7.5t42 6t38.5 -4t28.5 -18t-18.5 -155.5t-77 -353t-97 -404 t-92 -370.5t-47.5 -191q-4 -18 -19.5 -22.5t-34.5 3t-37.5 17.5t-31.5 19z" />
<glyph unicode="8" horiz-adv-x="864" d="M0 221q0 166 70 291q59 104 157 176q20 15 42 28t41 23t38 19t34 14.5t29.5 10.5t23 7.5t15.5 4.5l7 2l10 -49l-11 -4q-12 -3 -33.5 -11t-47 -18.5t-58 -29t-61.5 -40.5q-208 -155 -205 -424q0 -42 9 -77t21 -59t33 -44.5t37 -31.5t42.5 -21.5t39.5 -14.5t37 -10 q23 -6 51 -6.5t58.5 5.5t61.5 19.5t59.5 32.5t52.5 47.5t41 62t24 77.5t3.5 93.5t-23 110.5t-53.5 127q-14 27 -60.5 93.5t-93.5 133t-95 156.5t-75 170.5t-22.5 167t51.5 154.5q14 20 48.5 43.5t81 40.5t93.5 22t90 -15.5t66 -67.5q38 -74 -37 -271q-56 -148 -118 -229 q-36 -47 -48 -31q-17 20 -13 37.5t14 27t23.5 21t16.5 19.5q7 18 21.5 47.5t27 57t27.5 61t25 64.5t17 62.5t6.5 60.5t-9.5 52q-14 40 -64 43q-80 2 -123.5 -44t-46.5 -120.5t17.5 -161t63 -170t93.5 -143.5q22 -25 51 -63.5t67 -102.5t67.5 -130.5t45 -144.5t7.5 -147 t-54.5 -136t-130.5 -114q-122 -67 -260 -67q-19 0 -51 4q-112 12 -186 86q-78 84 -78 223z" />
<glyph unicode="9" horiz-adv-x="821" d="M22.5 1028q-0.5 65 6.5 131q20 145 116.5 255t206.5 110q82 0 145 -25.5t95.5 -60.5t51.5 -73t24 -62.5t4 -28.5q-3 -1 -7 -2t-14 -3t-17.5 -0.5t-11.5 8t-1 19.5q10 39 -53.5 104.5t-131.5 65.5q-13 0 -27 -2.5t-42 -19.5t-53.5 -46.5t-55.5 -90.5t-53 -144 q-38 -128 -24 -254t81 -145q45 -12 112.5 34t126.5 129.5t79 168.5l53 -17q-7 -31 -30 -77t-60 -98.5t-80.5 -98t-97 -75.5t-103.5 -30q-58 0 -104 27t-73.5 72t-44.5 104.5t-17.5 124.5zM47 178q10 42 40 85.5t66.5 76t72.5 57.5t62 35.5t31 3.5q10 -14 6.5 -26t-11.5 -20 l-9 -7l-7 -3q-6 -4 -16.5 -10.5t-25 -15.5t-30 -21t-31.5 -25.5t-31.5 -29.5t-28.5 -33t-23 -37t-14 -40q-18 -69 37 -139q19 -19 72 -29q59 -14 137 14q80 28 132 174t68 342.5t10 403.5t-34 369q-2 24 14 33.5t40 6.5t48 -10t41 -15l17 -7q13 -84 22.5 -156.5t18.5 -173 t11.5 -185.5t-2.5 -184t-19 -179.5t-42 -161t-68.5 -139.5t-101 -103.5t-137.5 -63.5q-86 -22 -108 -22q-54 0 -99 17.5t-61 37.5q-68 87 -47 180zM305 383z" />
<glyph unicode=":" horiz-adv-x="440" d="M92 125q9 43 40 68t65 16q33 -7 48.5 -43.5t4.5 -79.5q-10 -44 -40.5 -68t-64.5 -18q-33 9 -48.5 46t-4.5 79zM164 682q9 42 40 66.5t64 15.5q33 -6 49 -42.5t5 -78.5q-10 -44 -40.5 -69t-64.5 -17q-33 9 -48.5 45.5t-4.5 79.5z" />
<glyph unicode=";" horiz-adv-x="495" d="M0 -158q8 9 44 42t56 60t27 58q-50 15 -47 72q0 38 29 67t63 29q37 0 57 -20.5t22 -48.5t-1 -50.5t-8 -32.5q-37 -72 -99.5 -128t-134.5 -60zM158 672q9 43 39.5 67.5t64.5 16.5q33 -7 48.5 -43.5t4.5 -79.5q-10 -44 -40 -68t-64 -18q-33 9 -48.5 45.5t-4.5 79.5z" />
<glyph unicode="&#x3c;" horiz-adv-x="460" d="M-0.5 391q0.5 13 14.5 31q147 170 289 309q11 11 25 -16l43 -64q-52 -48 -174.5 -166.5t-126.5 -126.5q3 -7 20 -24.5t44 -43t51.5 -48t56 -52t43.5 -40.5q34 -26 82 -68q5 -5 -5 -23q-8 -13 -12 -12q-193 168 -330 307q-21 24 -20.5 37z" />
<glyph unicode="=" horiz-adv-x="606" d="M0 244l10 57q256 40 525 25l-9 -64q-20 2 -46.5 3.5t-33.5 2.5q-15 0 -62.5 1t-86.5 0.5t-78 -3.5q-127 -7 -219 -22zM0 399l10 58q236 37 525 24l-9 -63q-71 4 -80 6q-170 0 -227 -4q-108 -3 -219 -21z" />
<glyph unicode="&#x3e;" horiz-adv-x="479" d="M0 651q27 44 41 64q7 12 13.5 16t9.5 2l2 -2q136 -133 288 -309q15 -17 15.5 -30.5t-19.5 -37.5q-125 -128 -332 -307h-3l-9 12q-4 8 -4.5 13.5t0.5 7.5l2 2q15 14 31.5 28t30.5 25t18 15q205 186 217 208q-5 8 -133.5 132t-167.5 161z" />
<glyph unicode="?" horiz-adv-x="915" d="M73 1253q2 142 42 191q73 89 215 80.5t243 -103.5q115 -112 101 -270q-9 -106 -56 -203q-41 -81 -119.5 -183t-154 -200.5t-111.5 -171.5q-19 -40 -32 -92q-11 -50 -13 -76v-10v-25q-10 -17 -43 -20q-22 0 -34 8v2q0 1 -1 3t-1 3v4v7v6q-3 0 -3 6v6v4v10v11v2v6v2v8v8v2 q3 9 3 17l2 2v6v2q2 4 2 10q15 90 70 176.5t149 200.5q28 37 69 82q323 394 146 627q-67 90 -174.5 110t-177.5 -43q-39 -36 -48 -162t8 -254.5t46 -181.5q19 -36 -7.5 -60t-50.5 -24q-27 62 -49.5 198.5t-20.5 278.5zM115 66q6 22 23 33.5t36 6.5q20 -3 29 -20.5t4 -40.5 q-6 -23 -24.5 -35.5t-37.5 -9.5q-19 5 -28 24t-2 42z" />
<glyph unicode="@" horiz-adv-x="1114" d="M-32.5 360q-2.5 76 32.5 154q47 108 156 191q123 91 299 135q137 33 258 20q104 -12 176 -61q65 -44 100 -112t35 -150q0 -107 -49 -177q0 -29 -17 -63q-30 -68 -120 -115q-192 -100 -414 -100q-48 0 -98 6q-107 12 -193 50t-123 89q-40 57 -42.5 133zM16.5 363.5 q2.5 -65.5 36.5 -113.5q28 -38 102 -72t177 -45q247 -31 481 88q59 31 88 72q-21 -13 -44.5 -23t-45.5 -15.5t-45 -9t-42 -5t-37 -1.5t-29.5 1t-19.5 2h-9q-93 22 -101 49q-5 13 -11.5 57t-6.5 86q-49 -45 -70 -47q-114 -9 -151 39q-19 28 25.5 140.5t66.5 127.5 q24 17 63 33.5t64 13.5q28 -1 73 -41.5t42 -60.5q-1 -8 -25.5 -7t-30.5 11q-3 3 -13.5 22.5t-24.5 33t-31 10.5q-19 -4 -49 -73.5t-46.5 -139.5t-1.5 -76q14 -6 47.5 15t65.5 52q7 45 27 54q24 11 39.5 15.5t19.5 3.5l4 -1q31 -11 31 -29q4 -36 4 -245q15 -2 36.5 -2t60.5 3 t80.5 16.5t72.5 37.5q19 16 35 35q-2 11 -9 28q-13 34 -50.5 54t-86.5 12q-2 1 -6 2t-12 5.5t-11 9t1 11.5t18 15q29 15 96 -11t92 -69q17 44 17 105q0 71 -30 129.5t-85 95.5q-77 57 -213 57q-74 0 -178 -22q-153 -35 -264 -114t-158 -185q-31 -69 -28.5 -134.5z" />
<glyph unicode="A" horiz-adv-x="972" d="M-42 208v10v16q0 20 4 33.5t17 22.5t33 3q14 -5 99 -8l133 1183q10 17 51 24q26 4 51 4q14 0 29 -1q20 -3 28.5 -13.5t8.5 -21.5q13 -10 16 -24q0 -3 16.5 -186.5t42 -463t45.5 -483.5q77 6 164.5 47.5t153 94t112 100t54.5 71.5l37 -4q-44 -106 -200 -217.5t-316 -124.5 q49 -525 49 -667v-23q-28 -16 -42.5 -16t-15.5 16q0 107 -53 686q-56 -5 -201 -14q-11 -100 -23 -211.5t-17.5 -165t-6.5 -55.5q-2 -3 -9 -3t-18 2t-22.5 5.5t-25 8t-23.5 7.5t-19 6.5t-10 3.5q-4 2 -7.5 6.5t-4.5 8.5l-2 4q-4 20 -4 58q0 96 24 309q-123 -17 -147 -41 q-1 5 -1 13zM276 287q65 2 195 10q-11 123 -34 396.5t-36 414.5t-18 158q-16 -96 -34.5 -265t-41 -399.5t-31.5 -314.5z" />
<glyph unicode="B" horiz-adv-x="1875" d="M2 56q5 28 18 75q10 33 48.5 81t96 98t140 87t166.5 43h8q-14 697 -14 813q5 3 12.5 7t29 13t40 14t39.5 3.5t32 -12.5q17 -18 17 -261q0 -196 -11 -537q-1 -32 -1 -46q34 -6 61 -18q93 -44 96 -131v-12q0 -91 -59 -142q-63 -55 -156 -63q-6 -2 -20 -2q67 -19 138 -19 q51 0 103 10q244 134 392 329q133 174 133 323v13q-6 158 -169 225q-102 42 -257 42q-75 0 -162 -10q-41 -14 -58 -2q-15 11 17 25q12 5 29 10q56 14 152 106q120 114 156 211q11 31 11 56q0 72 -98 87l-43 3h-31q-145 0 -221 -35q-75 -33 -126 -79t-73 -92t-31 -94 q-6 -30 -5 -57q0 -17 2 -32q6 -41 14.5 -73.5t17 -51.5t10.5 -19q1 -3 1.5 -7.5t0.5 -14.5t-3.5 -15.5t-14 -4t-27.5 14.5q-5 4 -14.5 27t-16.5 62q-8 38 -10 86v11q0 43 14 91q16 54 47 106t94.5 101.5t152.5 85.5q85 34 192 34h6q112 -1 199 -40q88 -41 88 -125v-6 q0 -53 -43 -111q-33 -46 -104 -104q-80 -61 -166 -105q6 2 18 2q78 8 152 8q53 0 104 -4q145 -12 223 -61q105 -65 105 -185q0 -165 -92 -319q-78 -135 -230 -256q-35 -29 -110 -80q158 43 471 222t428 294l31 -31q-260 -209 -514 -348.5t-605 -257.5q-15 -6 -49 -10 q-24 -10 -64.5 -26.5t-56.5 -22.5q-247 -86 -407 -86h-13q-148 3 -200 61q-24 26 -30 63q-3 20 -3 38q0 14 2 27zM44 1q4 -31 22 -50q40 -46 170 -49h16q179 0 385 84q10 2 25 10q-170 6 -295 108q0 1 -1 3t-2.5 8t-1.5 11t1.5 10t5 8t11.5 3t19 -4q3 -2 9.5 -7t9.5 -7h6 q1 -7 18 -15q18 -10 51 -14q17 -2 36 -2q16 0 32 2q53 6 87 46t42 88q5 27 5 52q0 22 -3 42q-7 44 -28 59q-23 11 -41 14q-2 -31 -2 -71q0 -34 -14.5 -47t-35 -6.5t-41 18t-34.5 23.5l-15 12q0 29 -2 78q-4 0 -6 -2q-77 -5 -153 -40t-128.5 -81.5t-87.5 -90t-43 -71.5 q-11 -43 -16 -67q-3 -14 -3 -29q0 -12 2 -26z" />
<glyph unicode="C" horiz-adv-x="1363" d="M4 407l2 33q15 178 51.5 329.5t85 256t107.5 188.5t120 134.5t121.5 87t113.5 52t93.5 24t63.5 8.5h24q61 -4 110 -74.5t76.5 -163t47.5 -206t26.5 -181.5t8.5 -111l-64 35q-34 19 -54.5 91t-30.5 160t-20 174t-32 143q-21 55 -55 55h-2h-17q-88 0 -166 -38 q-85 -42 -145.5 -115.5t-109.5 -171.5t-79 -210t-50 -227q-18 -115 -24 -225q-3 -67 -4 -128q0 -38 2 -74q4 -92 16.5 -159.5t31.5 -97.5q42 -63 84 -102t100 -58q33 -11 68 -11q28 1 56 7q66 14 151.5 64.5t186 142t227.5 234t276 335.5l-12 15l45 -45q-29 -28 -95 -104.5 t-140 -159.5t-162.5 -174t-193 -175t-202.5 -137q-81 -43 -167 -43q-5 1 -10 1q-91 2 -173.5 41.5t-140.5 106.5q-49 56 -82 128.5t-45 136.5q-13 63 -17 119q-3 38 -3 67q0 12 1 22z" />
<glyph unicode="D" horiz-adv-x="1837" d="M2 -54q5 28 18 74q10 34 48.5 82.5t96 98.5t140 87.5t166.5 43.5q12 0 32.5 1t28.5 1q4 94 4 271t-4 437q-41 -355 -133 -579l-37 14q97 243 136 617q4 43 16 204q-191 -53 -303 -118q-35 -19 -39.5 -50.5t6.5 -53t15 -21.5q-4 0 -10.5 0.5t-23 4t-29.5 8.5t-24.5 15 t-13.5 23q-2 15 2.5 29t17 26.5t25.5 22.5t33.5 20.5t34 17t35 15.5t28.5 12q95 41 248 86l2 95h2q-2 4 -2 8l74 123q12 0 20 -13t11.5 -36.5t5 -46t2.5 -53.5t2 -46q9 2 18.5 4t18.5 4q151 35 269 34h3q119 0 204 -34.5t141 -93t83 -138.5t30 -172v-23q0 -83 -18 -173 q-22 -102 -62 -204.5t-100.5 -203.5t-134.5 -190q118 -64 199 -110l658 624l-70 -102l-631 -631l-16 20q-113 80 -201 129q-173 -180 -371 -262q-211 -86 -407 -86h-13q-147 3 -200 62q-24 26 -30 62q-3 20 -3 37q0 14 2 27zM59 -25q5 -21 13.5 -43t32.5 -43.5t54.5 -38 t80.5 -25.5q40 -7 87 -7h21q10 0 40 1t37.5 1.5t31.5 3t37 6t37 9.5t49 14.5t57 21.5q200 83 342 258q-133 73 -255 107q-120 34 -208 34h-2q-88 0 -164.5 -22t-126 -56t-87 -72.5t-54 -66.5t-21.5 -45q-4 -9 -4 -20q0 -8 2 -17zM634 1077v-40q0 -200 14 -439 q15 -263 42 -283q1 0 17.5 -2t42 -7t63 -15.5t95 -33t122.5 -54.5q76 111 125 244t66 259q9 71 9 139q0 54 -6 108q-14 120 -53.5 210t-112.5 145t-169 56h-8q-75 0 -244 -33q-1 -38 -3 -254z" />
<glyph unicode="E" horiz-adv-x="1105" d="M0 627l2 6q3 15 16 18q29 12 35 6q4 -18 21 -18q30 -3 57 -6q-8 688 -8 831q8 5 18 11q-40 5 -47 6q-76 10 -86 20q-9 9 -9 18q0 3 1 5l2 6q3 15 16 18q19 8 28 8q5 0 7 -2q3 -16 21 -20q70 -10 152 -16q58 -4 139 -4h71q126 2 219 24q10 3 19 -2t12 -16t-2.5 -20.5 t-15.5 -10.5q-124 -27 -287 -27q-67 0 -98 2q11 -78 11 -428q0 -175 -3 -418q93 -7 176 -10.5t143 -5.5h32q44 0 92 3q64 4 98 6.5t89 12t72 12.5t71.5 15.5t65.5 14.5q10 3 19 -3t12 -16q1 -4 1 -8q0 -7 -4 -13q-6 -10 -15 -10q-79 -17 -306.5 -34t-455.5 -17q-63 0 -92 2 q-2 -142 -5 -302.5t-5.5 -260.5t-2.5 -119q0 -35 -14 -48t-34 -6t-40.5 18.5t-34.5 23.5l-14 12q-4 331 -8 695q-17 0 -37 4q-76 10 -86 20q-9 9 -9 18q0 2 1 5zM80 -197l2 7q3 13 16 20q19 6 28 6q5 0 7 -2q4 -18 21 -18q64 -10 151 -16q63 -5 145 -5q32 1 67 1 q125 2 218 22q10 3 19 -2.5t12 -16.5q1 -4 1 -8q1 -7 -3 -12q-6 -9 -16 -10q-124 -27 -287 -27q-47 0 -121 4q-72 3 -166 14q-75 10 -86 21q-9 9 -9 17q0 3 1 5z" />
<glyph unicode="F" horiz-adv-x="1112" d="M0 627l2 6q3 15 16 18q29 12 35 6q4 -18 21 -18q30 -3 57 -6q-8 688 -8 831q8 5 18 11q-40 5 -47 6q-76 10 -86 20q-9 9 -9 18q0 3 1 5l2 6q3 15 16 18q19 8 28 8q5 0 7 -2q3 -16 21 -20q70 -10 152 -16q58 -4 139 -4h71q126 2 219 24q10 3 19 -2t12 -16t-2.5 -20.5 t-15.5 -10.5q-124 -27 -287 -27q-67 0 -98 2q11 -78 11 -428q0 -175 -3 -418q93 -7 176 -10.5t143 -5.5h32q44 0 92 3q64 4 98 6.5t89 12t72 12.5t71.5 15.5t65.5 14.5q10 3 19 -3t12 -16q1 -4 1 -8q0 -7 -4 -13q-6 -10 -15 -10q-79 -17 -306.5 -34t-455.5 -17q-63 0 -92 2 q-2 -142 -5 -302.5t-5.5 -260.5t-2.5 -119q0 -35 -14 -48q-9 -8 -21 -8q-6 0 -13 2q-20 7 -40.5 18.5t-34.5 23.5l-14 12q-4 331 -8 695q-17 0 -37 4q-76 10 -86 20q-9 9 -9 18q0 2 1 5z" />
<glyph unicode="G" horiz-adv-x="1292" d="M0 440v51.5v46.5q2 44 5 70l3 27q18 145 46.5 268t61 208.5t69.5 154t73 110.5t71 72t64.5 43.5t52 20.5t35.5 8h13q68 0 130 -24.5t107 -61.5t85 -87.5t65 -94.5t45.5 -91t27.5 -69t11 -35q4 -14 -7.5 -24.5t-26.5 -10t-20 15.5q-31 96 -64 154q-113 201 -312 235 q-85 -54 -156.5 -170.5t-116 -255t-68.5 -289.5q-24 -145 -24 -267v-9q1 -126 28.5 -214t80.5 -103q7 -3 21 -6.5t60 -6.5h22q36 0 74 6q51 8 129 38t158 81q1 48 1 92q0 202 -29 345q-18 92 -66 110q-10 4 -19 4q-30 0 -55 -42q-37 -62 -37 -173q0 -46 7 -102q6 -15 6 -33 q0 -39 -27 -90q-18 -35 -25 -33q-2 1 -1 8l7 136q29 363 127 444q25 21 54 21q10 0 21 -3q35 -11 61.5 -51t42 -94t25.5 -133.5t14 -153t6 -170.5q37 25 150.5 100.5t184.5 126.5t148 115h33q-165 -140 -301 -237.5t-213 -161.5q0 -44 1 -129t1.5 -133.5t2 -110.5t5.5 -106 q7 -76 54 -76h2q48 3 102 70q60 75 60 146q0 46 -29 73l33 19q20 10 34 10q21 0 23 -25v-7q0 -45 -60 -142q-77 -128 -160 -183q-42 -28 -76 -28q-56 0 -87 80q-8 20 -14 46q-4 16 -7 34.5t-5 34t-3 39t-2 38t-0.5 42.5t0.5 40.5t1.5 46t2 44t2.5 48t2 47.5 q-76 -48 -152 -82.5t-130.5 -48.5t-98 -21.5t-64.5 -7.5h-22h-5q-32 0 -83 23q-50 26 -87 73t-56 101.5t-30 114t-13 114.5z" />
<glyph unicode="H" horiz-adv-x="1259" d="M-98 604l2 6q4 16 16 19q35 10 35 4q3 -15 22 -19q9 -1 28 -3t28 -3q-6 519 -6 834q4 3 12 7t29 13q22 10 40 14q14 3 28 3q4 -1 10 -1q20 -2 32 -12q19 -19 19 -428q0 -182 -4 -442q81 -6 237 -10q-6 495 -6 755q5 3 12.5 7t29.5 13t40.5 14t39.5 3.5t32 -12.5 q18 -20 18 -448q0 -143 -2 -332q358 9 700 82q9 2 18.5 -4t10.5 -15q1 -4 1 -8q0 -7 -4 -13q-6 -10 -15 -10q-54 -13 -272.5 -33t-438.5 -32q-2 -187 -5.5 -410.5t-6 -367.5t-2.5 -166q0 -35 -14 -48q-9 -8 -22 -8q-6 0 -14 2q-20 7 -40.5 18.5t-35.5 23.5l-14 12 q-6 478 -10 936q-53 -2 -147 -2q-63 0 -90 2q-3 -139 -6.5 -303t-6 -262t-2.5 -119q0 -34 -14 -47t-34 -6.5t-40.5 18t-34.5 23.5l-14 12q-4 333 -8 694q-6 1 -18.5 3t-18.5 3q-69 7 -86 19q-8 8 -8 24z" />
<glyph unicode="I" horiz-adv-x="1112" d="M136 1062q129 178 265 328q121 134 152 134q4 0 6 -2q55 -44 101 -298t68 -561q17 -249 18 -453q0 -48 -1 -93q169 172 431 389q3 3 3 -7q-1 -3 -2 -12q-1 -14 -1 -20q-94 -67 -213 -172.5t-218 -210.5q-3 -88 -14 -174q-14 -95 -74 -170q-56 -70 -93 -70h-5 q-74 10 -74 68q0 74 125 227q-2 315 -49.5 841.5t-103.5 590.5q-1 2 -42 -40.5t-98.5 -110t-112.5 -142t-88 -148.5q-25 -56 -24 -96q0 -13 2 -24q4 -17 -21 -26q-25 -8 -51 -2q-23 6 -22 24q0 43 136 230zM524 -264q8 -18 33 -25q9 0 16 7t12 22.5t8.5 29t6 37t4 35.5 t3 35.5t1.5 26.5v24q-33 -44 -54 -80q-20 -34 -29 -64q-5 -16 -5 -29q1 -11 4 -19z" />
<glyph unicode="J" horiz-adv-x="1214" d="M126 1056q121 161 248.5 304.5t155.5 152.5q4 1 8 1q51 0 93 -220q45 -238 65 -526q16 -240 16 -416q0 -36 -1 -69q57 27 265 133t279 145q3 2 3 -3q1 -4 -1 -17l-2 -17q-47 -30 -249.5 -133t-292.5 -145q-10 -117 -64.5 -238t-128 -210.5t-155.5 -149t-148 -64.5 q-17 -2 -32 -2q-43 0 -71 12q-40 17 -52 49q-9 24 -9 53q0 10 1 20q4 41 23.5 84.5t46 83.5t56.5 69q94 90 182.5 145t221.5 119q2 20 2 57q0 145 -38 547q-49 501 -91 590q-17 -15 -56.5 -55.5t-99 -110t-109 -138.5t-80.5 -141q-21 -51 -21 -88q0 -15 3 -28 q4 -18 -21 -27.5t-51 -2.5q-22 6 -22 25q0 43 126 211zM178 -217q-4 -29 -4 -51q0 -79 50 -91q10 -2 20 -2q52 0 125 63q108 94 168 248q45 114 47 232q-84 -40 -145 -77t-120 -86t-95 -108.5t-46 -127.5z" />
<glyph unicode="K" horiz-adv-x="1333" d="M2 547q7 11 12 17.5t7.5 8t3.5 0.5q14 -11 28 0q16 12 33.5 25.5t38 29t31.5 23.5q-9 747 -9 791q5 3 12.5 7t29.5 13t40.5 13.5t39.5 3t32 -12.5q18 -18 18 -393q0 -125 -2 -289q397 337 666 725q10 12 20 12q7 0 15 -5q9 -6 10.5 -17t-4.5 -20q-48 -68 -289.5 -332.5 t-406.5 -417.5q-1 -1 -5.5 -4.5t-5.5 -5.5q0 -15 -1 -46t-1 -46q53 -63 128 -222t134.5 -309t117 -269t83.5 -120h2q38 -1 110 87q74 90 151.5 219t150.5 259t120 221l46 91l51 -13l-161 -266q-392 -629 -494 -662q-5 -2 -10 -2t-9 3q-50 34 -113 154t-113 250.5t-107 270.5 t-89 195q-2 -136 -5 -289.5t-5 -248.5t-2 -115q0 -34 -14 -47t-34 -6.5t-40.5 18t-34.5 23.5l-14 12q-4 349 -8 723q-24 -16 -52 -37q-61 -43 -75 -43t-23 12l-2 6q-6 6 -6 13q0 5 4 12z" />
<glyph unicode="L" horiz-adv-x="1243" d="M-48 164q8 22 32 28t49.5 9.5t40.5 -0.5q7 -1 21.5 -3t21.5 -3q-15 1245 -15 1251q5 2 12.5 6t29.5 12t40 12q14 3 30 4h10q21 -2 32 -12q17 -16 17 -384q0 -322 -13 -912q292 -52 416 -59q22 -2 43 -2q62 -1 118 13q76 18 132 50.5t104.5 80.5t81 96.5t59.5 105t42 99 t26 85.5q2 14 21 35q8 10 9 4q0 -2 -1 -6q-6 -28 -18 -66t-35.5 -96t-53.5 -114t-75 -115t-96.5 -104.5t-121 -76.5t-145.5 -36q-10 -1 -22 -1q-40 0 -103 8q-82 10 -198 27.5t-185 24.5q0 -28 -1 -60.5t-1 -35.5q0 -31 -14 -43q-9 -8 -21 -7q-6 0 -13 2q-20 6 -40.5 16 t-34.5 21l-14 11q-2 40 -2 106h-22q-103 0 -132 -26q-14 23 -14 41q0 8 3 14z" />
<glyph unicode="M" horiz-adv-x="1202" d="M0 1454q4 3 12 7t29 13t39 14q15 4 32 4h6q20 -1 32 -11l12 2q0 -5 10 -66t31 -164.5t48 -212.5t67 -219.5t83 -177.5q40 148 80 262q49 137 97 219q60 111 120 111q21 0 35 -14q43 -55 45 -299v-52q0 -175 -16 -460q-9 -162 -49 -662q9 6 25 18t62.5 54t90 89t99 122.5 t98 155t78 186.5t48.5 217q5 41 20 38q15 -2 20 -37q1 -7 1 -14q0 -10 -2 -20q-18 -102 -62.5 -210t-103 -198.5t-119.5 -171t-120.5 -143.5t-95.5 -99t-56 -54q-5 -4 -6 -5q-2 -2 -5 -2t-9 5q-8 8 -14 19l-5 11l4 40q4 40 10 111.5t13.5 157.5t15 196t13.5 210 q14 258 14 446v64q-1 50 -2 83t-1.5 52t-2 29.5t-1.5 13t-2 4.5l-3 2q-5 -1 -22 -25t-44 -75t-56.5 -118t-63 -166.5t-60.5 -207.5q-4 -11 -16 -18.5t-23 2.5l-39 45q-109 126 -209 549q-2 9 -6 27.5t-6 27.5q1 -65 1 -142q0 -153 -3 -353q-4 -298 -9 -533.5t-5 -255.5 q0 -35 -14.5 -48t-35 -6t-41 18.5t-35.5 23.5l-14 12q-14 1310 -14 1579z" />
<glyph unicode="N" horiz-adv-x="1220" d="M0 1423q8 7 20 13v6l5 -4q55 25 89 25q25 0 38 -13q15 -15 18 -229q23 -224 136.5 -598.5t221.5 -663.5q4 151 12.5 316t26.5 393t51.5 413.5t77.5 268.5q1 4 4 8t13 11.5t22 -1.5q12 -7 14 -19t-2 -20l-4 -8q-31 -65 -50 -238q-13 -120 -14 -238q-1 -53 3 -106 q8 -171 47 -221q39 -49 107 -55q12 -1 23 -1q59 0 121 24q76 30 152.5 89t131.5 134l26 -35q-11 -16 -48 -46t-90.5 -67.5t-117 -67t-123.5 -45.5q-32 -8 -62 -8q-27 0 -53 7q-55 14 -87 63q-52 79 -52 326q0 88 7 198q-33 -196 -54.5 -499.5t-26.5 -467t-5 -212.5 q-1 -41 -7 -43q-5 -3 -14 2.5t-15 12.5l-7 7q-126 158 -365 1016q-2 -185 -6 -422.5t-7 -398t-3 -185.5q0 -34 -14 -47q-10 -9 -22 -9q-6 0 -14 2q-20 6 -40.5 18t-35.5 24l-14 12q-14 1310 -14 1579z" />
<glyph unicode="O" horiz-adv-x="1644" d="M14 554q6 188 65 383.5t163 354.5q61 92 136 148q76 56 144 72q42 10 82 10q24 0 46 -4q58 -10 95 -41q8 -7 15.5 -14.5t12.5 -13.5t10 -15t8 -13.5t6 -16t4.5 -15.5t3.5 -17.5t2.5 -18t2.5 -21t3 -21.5l-113 -29q0 3 0.5 9t1.5 24.5t0.5 34.5t-2.5 40t-7 40.5t-13 36 t-21 26.5t-31 12t-42 -8q-54 -11 -110 -74.5t-105.5 -160.5t-91.5 -223t-71 -261q-29 -136 -40 -276q-6 -81 -6 -157q0 -55 3 -107q8 -124 44 -230.5t98 -171.5q43 -38 99 -54q34 -10 72 -9q23 0 48 3q64 10 127 45t126 106t112 169q65 130 106 281h-29q-72 0 -138 8 q-79 10 -151 34.5t-126 62t-88 94.5q-35 58 -43 130q-2 19 -2 39q0 59 18 131q24 97 84 211q172 206 312 206q31 0 59 -10q117 -39 179 -229q49 -149 50 -331q0 -65 -7 -135q-7 -84 -25 -164q182 20 348 75t227 111q43 41 53 41q3 0 3 -4q0 -12 -15 -33 q-68 -85 -245.5 -150.5t-379.5 -82.5q-28 -93 -30 -98q-39 -111 -88.5 -201t-100 -148t-104.5 -102t-104 -66t-97 -36q-47 -12 -86 -14q-23 -1 -43 -1h-25q-29 1 -45 5l-16 4q-110 52 -190 178q-80 124 -112 294q-27 143 -27 300q0 29 1 58zM486 778q-1 -14 0 -27 q0 -94 34 -155q39 -69 115.5 -112t168.5 -57q67 -10 145 -10q28 0 57 1q34 149 34 286q0 120 -26 230q-43 185 -139 254q-44 32 -90 32q-61 0 -126 -55q-55 -46 -106 -127q-61 -147 -67 -260z" />
<glyph unicode="P" horiz-adv-x="1155" d="M4 902q-3 23 -4 50q0 30 4 68q8 70 34.5 138t86.5 148.5t149 155.5q86 73 193 73h6q111 -2 199 -85q88 -82 88 -264v-12q0 -112 -43 -234q-40 -110 -107 -223q-72 -121 -164 -219q82 58 275 100t346 56q94 9 127 8q17 0 17 -2l-1 -1q-4 -1 0 -21q2 -10 2 -14q0 -6 -2 -6 q-73 8 -158.5 8t-186.5 -16.5t-195.5 -43t-186 -72.5t-157.5 -103q-4 -5 -15 -8q-2 -105 -4.5 -225l-4 -192t-1.5 -91q0 -35 -14 -48q-9 -8 -21 -8q-6 0 -13 2q-20 7 -40.5 18.5t-34.5 23.5l-14 12q-17 1109 -17 1378q5 3 12.5 7t29 13t40 14t39 3.5t31.5 -12.5 q18 -20 18 -385q0 -176 -4 -432h2q49 28 135 191q117 225 164 436q21 95 21 165q0 133 -76 173q-28 15 -65 16q-18 1 -35 1q-58 -1 -105 -11q-61 -14 -112 -62q-75 -71 -123 -143t-64.5 -130.5t-18.5 -112.5q0 -9 -1 -18q0 -43 10 -76q12 -40 27 -70t27 -45t14 -15l2 -49 q-2 -37 -14 -37t-33 33q-8 13 -17.5 32t-25 66.5t-21.5 96.5z" />
<glyph unicode="Q" horiz-adv-x="1560" d="M4 456q-4 54 -4 109q0 91 12 182q19 146 74.5 296t142.5 274q60 85 136 138t145 67q43 9 82 9q23 0 46 -3q58 -9 95 -39q9 -7 16.5 -14t13.5 -16t10.5 -14.5t8 -16.5t5.5 -15t4.5 -18.5t3.5 -18t3 -21.5t3 -22l-113 -26q1 5 1.5 13.5t1 35t-2 46.5t-9 48t-20 39.5 t-34.5 21.5t-52 -6q-46 -18 -109.5 -116t-125 -239t-107.5 -314t-64 -336q-7 -60 -7 -118q0 -99 20 -192q30 -148 115 -233q67 -54 159 -58h13q87 0 180 50q-64 54 -103 54q-29 0 -44 -28q-12 -21 -27 -21t-31 21q-28 38 -30 87q-1 21 6 32q4 7 10.5 22t11 24t16.5 19 t29.5 11.5t48 -4.5t72.5 -23q57 -22 144 -116q72 69 129 174q148 274 148 567q0 226 -87 366q-69 113 -166 113h-10q-114 -7 -223 -168q-77 -104 -77 -232q0 -19 2 -38q10 -118 74 -183q42 -42 89 -42q30 0 61 16q20 10 39 27q40 36 68 36q7 0 13 -2q24 -10 8 -45 q-7 -13 -19 -28q-89 -104 -194 -104h-11q-96 5 -156 92q-53 76 -53 181q0 46 10 97q25 131 115 270q173 193 312 193q33 0 64 -11q117 -41 178 -223q45 -136 45 -298q0 -68 -8 -141q-16 -146 -63 -269q-99 -256 -252 -389q45 -50 111.5 -130.5t100.5 -118.5t40 -30 q65 82 193 306t231 412t117 200q16 12 26.5 12.5t13.5 -5.5l3 -5q-381 -668 -557 -946q-42 -66 -54 -77q-15 -12 -34 -12h-6q-9 2 -53 55.5t-112 135t-120 131.5q-53 -30 -109 -47t-98 -21q-33 -2 -61 -2h-16q-35 1 -54 5l-18 4q-92 40 -162.5 130t-111 208.5t-52.5 264.5z " />
<glyph unicode="R" horiz-adv-x="1138" d="M6 1219q0 18 27.5 38.5t63.5 34t71.5 17.5t50.5 -11q11 -11 14 -100q53 130 123.5 229t116.5 99q44 0 73 -25t36 -49l8 -25q-10 -115 -45 -232.5t-78.5 -203t-85.5 -155t-70 -104.5l-28 -36q20 -3 67.5 -109.5t94 -232.5t93 -231t66.5 -105q33 0 82 32t101.5 83.5 t107.5 113.5t104 124.5t88 114t61 84.5l23 32l39 -8l-169 -207q-379 -456 -451 -456q-3 0 -5 1t-3 2q-43 30 -98.5 141.5t-99 228.5t-88.5 218t-69 113q-3 -137 -9 -323t-9.5 -306.5t-4.5 -148.5q0 -34 -14 -47q-10 -9 -21 -9q-6 1 -13 3q-20 6 -40.5 17.5t-35.5 23.5 l-14 12q2 36 4.5 96t10 248t10.5 338q3 151 5 367q1 57 1 107q0 140 -5 226q0 5 -31 -15q-29 -18 -43 -18q-12 0 -12 13zM227 721q60 21 151 224q89 199 123 370q11 57 11 91q0 50 -25 50h-3q-4 0 -9 -2q-93 -37 -171 -235q-75 -188 -75 -432v-25q0 -7 -1 -20.5t-1 -20.5z M1497 -158l4 -4z" />
<glyph unicode="S" horiz-adv-x="1081" d="M0 90q2 43 18 90q11 31 36.5 54t67 38t87.5 24.5t112 16t125 10.5t143 10.5t150 14.5q-43 35 -121 85.5t-146 94.5t-134.5 93.5t-107.5 101t-44 98.5v9q0 87 114 248q123 175 285 304q179 142 303 142q19 0 37 -3q79 -15 122 -100q5 -9 4 -29q0 -82 -80 -354 q-100 -338 -144 -417l-67 84q3 7 8.5 19.5t23.5 54t33 79t37.5 95.5t38 103.5t34 102.5t25 93.5t11 75.5t-7.5 48q-6 11 -21 11q-46 0 -176 -105q-172 -140 -317 -322q-115 -145 -115 -211q0 -18 8 -30q28 -44 114 -101t192 -127.5t167 -134.5q375 53 621 199l33 -7 q13 -5 13 -11q0 -7 -18 -17q-267 -138 -628 -184q38 -44 55 -80q9 -16 8 -35q1 -23 -11 -47q-22 -46 -74.5 -89t-124 -86.5t-151.5 -75t-157.5 -53.5t-142.5 -22t-107 19l-11 5.5t-25.5 16.5t-34 28.5t-31.5 42.5t-24 57q-6 23 -6 53q0 10 1 20zM164 114q6 -34 24 -77 q29 -69 88 -97q44 -21 94 -22q17 0 34 2q69 10 142.5 42t134 77.5t101 95t43.5 88.5v6q0 41 -61 97q-70 -8 -197 -18q-72 -6 -106.5 -9t-90.5 -10t-80 -15.5t-58.5 -22.5t-45 -32.5t-20.5 -44.5q-6 -15 -5 -33q0 -13 3 -27z" />
<glyph unicode="T" horiz-adv-x="1277" d="M0 1452l2 8q3 13 16 19q30 9 35 4q4 -19 21 -19q67 -8 235 -22v43q5 3 12.5 7t29.5 13q23 9 41 13q14 3 29 4h10q21 -2 32 -13q7 -7 10 -77q67 -3 129 -3h104.5t96.5 5.5t76 7t73.5 11.5t59 11.5t62.5 14t56 12.5q10 3 19 -2t12 -16t-2.5 -20.5t-15.5 -10.5 q-70 -15 -264.5 -31t-403.5 -20q4 -96 4 -303q0 -358 -12 -1049q63 111 168.5 216.5t210.5 177.5t207.5 129.5t166 85t80.5 30.5q52 10 50 -12l-2 -7q-15 -4 -41.5 -11.5t-104 -37.5t-151.5 -67.5t-169 -104.5t-171.5 -144.5t-145 -191t-102.5 -241.5q0 -35 -14 -47 q-9 -8 -21 -8q-6 0 -13 2q-20 6 -40.5 18.5t-34.5 24.5l-14 12q-15 1128 -17 1530q-33 0 -49 2q-72 3 -166 14q-75 10 -86 21q-9 9 -9 17q0 3 1 5z" />
<glyph unicode="U" horiz-adv-x="1398" d="M1 450q1 4 5 11q39 34 67.5 131t40 210t17.5 221.5t6 180.5v72l5 7.5t12 16.5t18 21t21 16.5t22.5 7.5t21 -11t17.5 -34q0 -1 -7.5 -102.5t-18.5 -249.5q-10 -150 -12 -328v-74q0 -137 6 -260q8 -156 39.5 -271t86.5 -138q23 -9 48 -11t56.5 7t61.5 31t61 65t57 103 t48.5 151.5t36.5 204.5q-8 802 -8 1051q5 3 12.5 7t28.5 14q22 10 40 14q14 3 29 3q5 -1 10 -1q20 -2 31 -13q10 -11 14 -121q4 -90 4 -258v-79q-1 -227 -2.5 -362t-6.5 -420.5t-5 -287.5q52 121 127 234.5t148.5 192.5t144.5 140.5t121 91.5t72 32q39 5 39 -4q0 -2 -2 -5 l-11 -10q-9 -3 -26 -9.5t-67.5 -34.5t-99.5 -64t-115.5 -101t-123 -142.5t-113.5 -193t-96 -247.5q-2 -35 -16 -47q-10 -8 -21 -8q-6 0 -13 2q-20 6 -40.5 18.5t-34.5 24.5l-14 12q-2 145 -4 352q-89 -295 -324 -393q-29 -12 -55 -12q-27 0 -50 13q-46 26 -73 91t-46 159 t-25 205q-6 112 -8 231q-1 40 0 79q0 78 3 155q-34 -211 -94 -268l-32 -23q-15 -9 -15 -1q0 2 1 5zM162 1276q0 -9 4 -25q-1 4 -1 9t-0.5 7.5l-1 5t-0.5 3.5h-1z" />
<glyph unicode="V" horiz-adv-x="1087" d="M0 756q4 269 23 490.5t43 246.5q18 19 42 19t45.5 -13t40.5 -29t30 -30l12 -13q-3 -44 -26.5 -294.5t-35.5 -407.5t-12 -358.5t24 -303.5q34 222 195.5 651t275.5 591q1 1 2 3t5.5 6.5t9 7.5t11.5 2.5t13 -5.5q11 -8 19.5 -28.5t10.5 -36.5l3 -17q-45 -58 -108 -274 t-96 -435q-17 -111 -16 -180q0 -67 15 -94q14 -24 36.5 -30.5t53.5 5t62.5 30t73 54.5t75.5 67t79.5 78.5t75 79.5t72.5 78.5t62 67.5l23 -39q-25 -26 -42 -43.5t-73.5 -73.5t-101 -96t-108 -93.5t-112.5 -86.5q-50 -32 -98 -52q-36 -15 -62 -16q-9 0 -16 2q-33 6 -49 43 q-7 16 -7 52q0 63 21 183q34 192 95 450t69 300q-81 -111 -217 -483.5t-233 -763.5q-46 -104 -78 -104q-6 0 -15 7t-14 14l-6 7q-51 82 -74 339q-19 215 -19 438q0 44 1 88z" />
<glyph unicode="W" horiz-adv-x="1542" d="M8 1216q-8 67 -8 116q0 88 25 120q29 32 48.5 49t24.5 18l4 1q2 1 5.5 1.5t12 0.5t16 -3t14.5 -13t10 -27q1 -3 24.5 -135t54.5 -298.5t65 -340t62.5 -292.5t39.5 -122q2 0 3 -1q72 0 222 1021q7 45 32 -2l3 -6l104 -156q-7 -76 -26.5 -224t-36.5 -286q-17 -139 -31 -289 q-14 -145 -15 -272q1 -4 1 -9q0 -131 20 -214q24 157 52 313t74.5 383.5t102 406t109.5 254.5q1 1 2 3.5t5.5 7t9 7t11.5 2.5t13 -5q11 -8 11.5 -19.5t-4.5 -19.5l-5 -8q-2 -9 -17 -67.5t-23 -90.5t-23.5 -98t-24 -110t-20 -105.5t-15.5 -105.5q-5 -43 -8 -89q-1 -17 -1 -33 q0 -25 3 -45q5 -32 16 -51q23 -42 72 -42q4 1 8 1q55 4 123 36t144.5 87.5t144 115t121.5 117.5l24 -39q-23 -24 -60.5 -58.5t-109 -90t-141 -97t-151.5 -65.5q-54 -16 -99 -17q-24 0 -47 5q-34 6 -49 41q-24 52 -24 154q0 139 44 370q-57 -190 -115 -479.5t-87 -476.5 t-29 -201q-6 -43 -12 -45h-1q-4 1 -12 7l-14 14l-6 8q-49 80 -75.5 194t-34.5 210q-4 45 -5 105q-1 67 5 153q10 162 18.5 242t30.5 257q2 17 3 26q-52 -275 -106.5 -488t-93.5 -239q-47 -28 -86 -28q-12 0 -23 3q-48 11 -69 50q-11 24 -58.5 197.5t-98.5 396.5t-73 409z " />
<glyph unicode="X" horiz-adv-x="1585" d="M4 -208q12 44 43 69q23 19 31.5 5t6.5 -44t1 -57.5t16 -37t52 18.5q27 20 150.5 168.5t197.5 263.5q-114 320 -243 693.5t-128 394.5l-11 12q-6 9 -6 18q0 31 76 57q6 3 13 5q16 5 30 5q20 -1 35 -11q26 -18 31 -43q2 -6 60.5 -172.5t146.5 -417t119 -338.5 q295 529 458 1106l11 36q4 9 7.5 9t6.5 -10q33 -94 33 -113q0 -5 -2 -5t-7 5q-9 12 -24 39q-80 -272 -206 -566.5t-263 -543.5q130 -374 164 -479q36 95 78 179.5t84 149.5t90 122t91 97.5t92 77t88 60t84 45.5t74.5 34t65.5 26.5t52 21.5l54 -8q5 -1 5 -2.5t-6 -2.5 q-65 -17 -114 -32.5t-105 -38t-100 -48t-93 -61.5t-90 -80t-85.5 -102t-85 -128.5t-83 -159.5t-84.5 -195q-12 -33 -27 -65.5t-40.5 -80.5t-32.5 -63q-2 -5 -6 -5q-7 0 -19 29q-7 19 -33 109q-5 18 -139 393q-77 -123 -205 -275t-163 -171q-42 -22 -72 -22q-13 0 -24 4 q-35 13 -48 47q-7 18 -7 39q0 19 5 39z" />
<glyph unicode="Y" horiz-adv-x="1382" d="M-14 1276q1 135 39 176q29 32 48.5 49t24.5 18l4 1q2 1 5.5 1.5t12 0.5t16 -3t14.5 -13t10 -27q2 -9 23.5 -222t45.5 -403q23 -179 35 -179q1 0 2 1q115 106 234.5 334.5t130.5 300.5q7 45 32 -2l3 -6l104 -156q-1 -6 -9 -103.5t-11 -130t-11 -135t-10.5 -153t-8 -149 t-6 -157.5t-0.5 -143q-1 -10 -1 -21q0 -70 3 -120q4 -57 10.5 -116.5t16.5 -102.5q106 40 195 104t147 135t103 147t70.5 145t41.5 124.5t24 89.5t11 35l58 25l-52 -150q-17 -48 -33.5 -88.5t-45.5 -99t-61.5 -109t-81.5 -111t-105 -113t-132 -107t-163 -99.5 q-35 -19 -43 -19q-3 0 -2 3q-110 179 -110 634q0 333 59 814q-92 -211 -229 -399q-146 -199 -234 -209h-7q-33 0 -53 32q-12 19 -39 136.5t-51 261.5q-24 141 -24 273v5z" />
<glyph unicode="Z" horiz-adv-x="1210" d="M0 1372l2 6q3 16 16 19q22 7 31 7q3 0 4 -1q3 -17 21 -21q64 -10 144 -16q62 -5 147 -4h55q121 2 213 20q4 8 4 13q14 2 36 3.5t63.5 -6.5t51.5 -32q1 -2 1 -6q0 -38 -84 -258q-93 -242 -224 -555q96 -4 179 -4q213 0 339 26q174 36 222 139q3 6 7 -7q7 -19 7 -31 q0 -6 -2 -11q-16 -41 -60.5 -71t-109.5 -49t-156 -29t-191 -14q-54 -2 -113 -2q-52 0 -109 1h-33q-62 -154 -137 -329q138 -15 257 -15q153 0 273 25q9 3 18.5 -2.5t10.5 -15.5q3 -9 -3 -18.5t-16 -12.5q-124 -27 -286 -27q-49 0 -119 4q-72 3 -156 13q-6 -14 -13 -33 l-7 -19q-13 -33 -31 -39q-6 -2 -11 -2q-12 0 -23 10q-17 14 -31.5 32t-23.5 34l-9 17q63 170 145 387q-14 2 -45 5t-47 5q-76 10 -86 20q-8 8 -8 23l2 8q3 13 16 19q35 10 35 4q4 -19 22 -19q68 -9 129 -12q225 600 293 776q-101 -16 -229 -16q-22 0 -62.5 1t-58.5 1 q-83 6 -166 16q-72 9 -86 19q-9 9 -9 19q0 2 1 5z" />
<glyph unicode="[" horiz-adv-x="542" d="M0 -283q42 237 140 962t110 841q113 -39 151 -39q61 0 105 20l10 -57q-29 -23 -84 -23q-38 0 -96 15q-26 -266 -92 -691q-122 -854 -142 -964q33 10 74 10q52 0 96 -20q-14 -53 -16 -64q-48 23 -98 23q-115 0 -158 -13z" />
<glyph unicode="\" horiz-adv-x="901" d="M0 1335q0 6 35 15.5t74 4t47 -37.5q10 -44 29 -119t77.5 -262t126.5 -361q7 -18 57 -168.5t103 -276.5t98 -177q42 -44 20 -63q-10 -9 -20 -3q-58 31 -141 172.5t-161 323t-151.5 376.5t-121 336.5t-62.5 198.5q-2 14 -10 41z" />
<glyph unicode="]" horiz-adv-x="575" d="M0 -231q27 24 84 24q56 0 96 -14q25 258 88 694q12 84 44 317.5t59.5 430.5t31.5 225q-30 -10 -73 -10q-53 0 -94 20q3 11 8.5 33.5t7.5 30.5q39 -23 98 -23q28 0 86.5 7t81.5 14q-40 -244 -142.5 -985.5t-111.5 -825.5q-98 27 -149 27q-54 0 -105 -23z" />
<glyph unicode="^" horiz-adv-x="606" d="M121 997q114 86 184 174l45 -2q86 -140 107 -202q-5 -2 -66 -29q-1 2 -7.5 20t-14.5 37t-23 52t-33 65q-5 -6 -34 -39.5t-43.5 -49.5t-37 -38.5t-38.5 -34.5q-6 8 -19.5 23.5t-19.5 23.5z" />
<glyph unicode="_" horiz-adv-x="598" d="M0 2l10 57q241 38 525 25l-9 -64q-66 4 -80 7q-170 0 -227 -4q-108 -3 -219 -21z" />
<glyph unicode="`" horiz-adv-x="315" d="M2 1057q-11 24 17.5 43.5t54.5 19.5q10 0 10 -14q0 -34 32.5 -91.5t65.5 -86.5l-4 -6q-51 3 -101.5 46.5t-74.5 88.5z" />
<glyph unicode="a" horiz-adv-x="860" d="M6 393q-8 12 -8 35q0 54 40 166q58 162 87 186q29 23 79 47q45 21 76 21h7q35 -4 91 -62q54 -56 54 -83q0 -15 -32 -13q-31 2 -40 15q-2 2 -16.5 32t-32 48t-39.5 14q-24 -5 -62 -105t-58 -201q-11 -52 -12 -80q0 -26 10 -30q4 -2 9 -1q19 0 51 23q41 30 83 76 q10 64 35 78q30 16 50 22t25 5l5 -2q5 -2 11.5 -5t18 -13.5t11.5 -22.5q0 -5 -6 -101q-6 -89 -6 -168q1 -8 1 -14q0 -84 15 -88q4 -2 9 -1q31 0 89 57q67 67 136 164t117.5 170.5t63.5 99.5q6 12 12.5 14.5t12.5 -2t11 -11t8 -12.5l3 -6q-5 -7 -13.5 -19t-35 -48.5 t-52.5 -72t-63 -83t-70 -88.5t-69.5 -82.5t-65.5 -69.5t-54 -45q-21 -14 -35 -14h-4q-127 20 -142 74q-7 17 -14.5 82t-7.5 127q-58 -65 -90 -70q-24 -2 -45 -2q-109 0 -148 59z" />
<glyph unicode="b" horiz-adv-x="833" d="M0 1362q5 3 12.5 7t29.5 13q21 10 40 14q14 3 29 3q5 -1 10 -1q20 -2 31 -12q16 -14 16 -262t-16 -729q74 156 147 156q76 0 129 -63q52 -62 72 -154q12 -57 13 -118q0 -37 -5 -75q73 64 177.5 208.5t184.5 295.5l9 19q8 12 16 4q7 -7 7 -19t-4 -20l-3 -8 q-81 -153 -194.5 -309.5t-200.5 -227.5q-23 -105 -80.5 -171.5t-143.5 -66.5q-91 0 -129 56q-24 35 -24 90q0 28 6 61q-20 -12 -48 -1t-53 30l-24 20q-4 991 -4 1260zM143 102q5 2 12.5 3t19 1.5t17.5 -5.5t3 -19q-2 0 -2 -2q11 -28 43 -46q29 -17 55 -16h6q19 0 63 21 q11 63 11 130q-1 77 -15 161q-26 156 -59 168q-31 0 -74 -82.5t-78 -194.5q0 -33 -1 -73.5t-1 -45.5zM180 20q-3 -16 -3 -30q0 -33 16 -58q21 -30 83 -30q50 0 74 90q-30 -9 -57 -12h-8q-62 0 -105 40z" />
<glyph unicode="c" horiz-adv-x="991" d="M6 404q18 88 63.5 174.5t100.5 155.5t94 91q77 45 260 45q61 0 95 -66q19 -37 19 -69q0 -17 -5 -32q-9 -29 -35 -31q-34 -3 -52.5 2t-19.5 12l-2 6q27 17 38 54q4 15 4 29q0 21 -10 39q-16 30 -57 30h-3q-29 -1 -77 -37.5t-99 -100.5t-93.5 -140t-62.5 -167 q-11 -51 -11 -97q0 -37 7 -73q7 -34 32.5 -63t55.5 -29q99 0 194 21t168 55t138 74.5t111 81.5t79.5 75t49.5 55l16 21q2 0 5 -0.5t10.5 -2t13.5 -3.5q7 -3 11 -7q4 -3 3 -7q1 -6 -37 -48q-36 -38 -108.5 -96.5t-162.5 -113t-217 -93t-256 -38.5q-88 0 -144.5 37.5 t-98.5 107.5q-23 40 -23 91q0 27 6 57z" />
<glyph unicode="d" horiz-adv-x="1101" d="M28 602q28 100 94 163q55 52 121 52q13 0 27 -2q56 -8 99 -106q0 524 18 559l10 5t24.5 11t32.5 11t34 5q5 1 10 1q13 0 20 -5q17 -9 25 -28.5t7 -35.5l-1 -15q-17 -564 -17 -883q0 -401 27 -416q6 -3 14 -4q39 0 115 90q92 106 181 244.5t164.5 263t78.5 127.5 q8 7 14 -2t8 -22l3 -13l-16.5 -27.5t-43 -70t-65 -104t-78.5 -121t-88 -128.5t-88.5 -118.5t-85.5 -100.5q-38 -42 -72 -66q-30 -21 -51 -21q-3 0 -6 1q-66 11 -108.5 60.5t-53.5 99.5q-9 49 -12 471q-16 110 -46 195.5t-59 89.5q-34 -4 -84 -156q-49 -149 -49 -284v-5 q0 -138 64 -147q15 -2 27 -2q38 0 59 20q5 5 9.5 12t7.5 13.5t5 15.5t3 15.5t1.5 17t0.5 16t-1 16.5t-1.5 15t-1.5 15t-1 12q-3 18 10.5 21t28.5 -3l14 -6l2 -12q1 -12 2.5 -27t1 -36.5t-3.5 -41.5t-12.5 -41.5t-23.5 -37.5q-37 -39 -104 -39q-16 0 -34 2q-87 13 -136 95 q-48 80 -48 182q-1 106 28 210z" />
<glyph unicode="e" horiz-adv-x="770" d="M0 416v17q0 62 25 142q26 83 71.5 155t108.5 104q28 14 58 13q38 0 79 -22l10 -14q7 -15 7 -33q0 -61 -78 -155q-51 -62 -136 -134q-27 -96 -27 -156q0 -67 34 -87q20 -12 54 -12q2 0 3 -1q33 1 77 11q46 10 105 39t120.5 70.5t131.5 107.5t135 147q12 4 22 4q6 0 7 -8 q0 -4 -2 -10q-114 -142 -253.5 -248.5t-265.5 -145.5q-58 -18 -107 -18q-59 0 -107 25q-34 21 -51 59.5t-19 67.5t-2 82zM166 559q136 122 136 201q0 8 -1 16q-2 15 -9 15q-12 0 -38 -39q-46 -73 -88 -193z" />
<glyph unicode="f" horiz-adv-x="864" d="M-41 540q3 98 72 134q30 15 68 15q59 0 137 -36l6 555l-22 24q-13 18 -13 28q0 14 25 14h6q21 -1 55 -10q22 -5 47.5 -17t39.5 -21l15 -9q-4 -29 -28 -609l-1 -14q-1 -14 -1.5 -24.5t0.5 -14.5q14 -21 24.5 -51t15 -51.5t11 -55.5t8.5 -45q156 66 292.5 164.5 t170.5 149.5q13 21 27 -25l1 -4l-63 -62q-163 -151 -387 -251q-9 -5 -33 -15q10 -58 10 -117v-25q-3 -72 -11.5 -128.5t-24 -111.5t-28.5 -90.5t-25.5 -65.5t-14.5 -37q-11 -43 -42 -73q-19 -19 -36 -19q-9 0 -18 6q-19 185 -27 334q-6 120 -6 180v27l2 57q-117 4 -192 108 q-60 83 -60 177v9zM27 427q16 -72 84 -110q44 -25 102 -26v4l12 227l-4 2q-59 30 -102 30q-39 0 -65 -24q-31 -28 -31 -71q0 -15 4 -32zM337 -67v-38q0 -34 1 -51q7 31 20.5 77t22.5 80t17 79q6 40 6 86v12q-1 54 -11 115q-7 -2 -21.5 -6t-21.5 -6q-3 -71 -7 -158 t-4.5 -106.5t-1.5 -83.5zM352 326q19 8 31 10q-5 28 -27 82q-4 -62 -4 -92z" />
<glyph unicode="g" horiz-adv-x="892" d="M6 397q-8 12 -8 35q0 54 40 166q58 162 87 186q30 24 80 48q45 22 75 22h7q35 -3 91 -62q54 -55 54 -84q0 -12 -32 -12q-31 1 -40 13q-2 3 -16.5 33t-32 48.5t-39.5 14.5q-24 -5 -62 -105t-58 -201q-11 -52 -11 -80q0 -26 9 -30q4 -2 10 -2q29 0 90 57q73 67 92 111 q3 11 8 16q-1 9 -2 29t-2 29l113 -37q6 -68 13 -240q4 -118 4 -227q0 -51 -1 -100q60 61 125 139.5t116 147.5t92 129t65 97l24 37q27 23 39 11q6 -7 6 -18.5t-3 -19.5l-3 -7q-75 -142 -203 -296t-260 -270q-7 -234 -43 -286q-36 -49 -102 -49q-34 0 -72 12q-85 28 -146 102 q-59 72 -59 159v9l55 -2q22 -32 60 -55q27 -17 49 -17q7 0 14 2q65 19 146 84v48q0 198 -21 516q-19 -29 -41.5 -59t-57 -62.5t-56.5 -34.5q-22 -3 -44 -3q-34 0 -68 7q-55 11 -81 51zM129 -172q23 -43 62 -76t83 -47q8 -3 15 -5t13 -2t10 -1h1q3 0 7 2q5 3 6.5 3t6 5.5t5 6 t5 8t5.5 8.5q22 31 25 164q-108 -81 -164 -84h-8q-37 0 -72 18z" />
<glyph unicode="h" horiz-adv-x="935" d="M0 1397q5 3 12.5 7t29 13t40.5 13q14 3 29 4h10q20 -2 31 -13q7 -7 11 -53.5t5 -132.5v-86v-85q-1 -85 -4 -211t-5.5 -208t-6.5 -206.5t-5 -164.5q36 125 99 261t114 196q0 1 1 3t1 3q3 0 7 4q1 0 2 1t2 1h2q65 39 93 39h3q48 -5 51 -41q0 -4 -8 -120.5t-16.5 -250 t-9.5 -257.5v-15q0 -110 14 -129q6 -10 17 -10q63 0 268 358q41 72 108 195q49 90 53 94q10 8 15 1.5t7 -17.5l1 -12q-13 -26 -34.5 -70t-84 -157.5t-118 -202t-121 -164.5t-109.5 -84q-15 -3 -29 -3q-49 -1 -81 35q-42 46 -52 121q-7 45 -7 191v70q2 206 13 333 q-62 -105 -123 -268t-82 -260q-1 -2 -2 -7.5t-2 -7.5q0 -4 -2 -8v2q-8 -15 -24.5 -17t-35 6.5t-35 19t-27.5 19.5l-11 9q-4 993 -4 1262z" />
<glyph unicode="i" horiz-adv-x="630" d="M2 499q8 141 39 156q30 15 50 20.5t25 4.5l5 -2q5 0 12 -1t18.5 -12t10.5 -30q0 -1 -2 -25t-4.5 -53.5t-5.5 -72t-5.5 -84.5t-4.5 -88t-3 -84q-1 -26 -1 -48v-22q0 -32 3 -51.5t8 -22.5q3 -2 8 -2q33 0 137 110q118 124 221.5 254.5t119.5 159.5q19 34 27 -14l2 -12 q-9 -12 -25 -31.5t-62.5 -77.5t-91 -110.5t-101.5 -117t-102 -112t-85.5 -81t-59.5 -36.5q-20 -4 -37 -4q-65 0 -80 56q-7 26 -15 159q-4 69 -4 139q-1 67 3 135zM16 745q1 9 2 95.5t2 91.5q2 10 56 14q17 1 30 1q29 0 39 -7q14 -10 18.5 -22t6.5 -41q1 -19 1 -35 q0 -61 -15 -88q-66 -45 -86 -47q-18 0 -36 12.5t-18 25.5z" />
<glyph unicode="j" horiz-adv-x="919" d="M0 -539q18 18 49 47q3 5 27.5 42.5t33.5 52.5t30 52t31 61t21 57t15 61q9 56 9 192t-9 350q-17 430 -37 566q53 47 102 49q16 0 29.5 -26.5t18.5 -52.5l6 -27q1 -28 3.5 -76t7.5 -185t7.5 -260t2.5 -269t-5 -245l-6 -36q462 528 594 884l43 -16q-42 -111 -115 -239 t-151 -238t-176.5 -231t-171.5 -203.5t-156.5 -170t-112.5 -116t-57 -55.5l-2 -2l-11 12q-3 -2 -4 0t0 6zM86 1409q0 8 54 19q32 7 51 7q12 0 18 -3q15 -8 41.5 -88.5t32.5 -118.5q7 -47 7 -78t-7 -47q-58 -52 -78 -56q-4 -1 -8 -1q-13 0 -29 9q-20 10 -21 23q0 8 -31 168 t-30 166z" />
<glyph unicode="k" horiz-adv-x="851" d="M0 1122q0 17 27.5 38t63.5 34q35 14 71 18q8 1 15 0q24 0 36 -12q16 -16 16 -248q0 -143 -6 -368q82 13 229 152q92 87 114 128q7 13 -3 10q-6 5 -14.5 12t-22 23t-6 26.5t40.5 10.5q27 0 46 -5.5t25.5 -13t9.5 -15.5t2 -14l-1 -5q-9 -39 -49 -87.5t-91.5 -90 t-101.5 -77.5t-84 -56l-34 -21q20 -3 67.5 -78.5t94 -165.5t93 -165t66.5 -76h1q27 0 89 89q64 90 114 181l50 90l39 -10l-80 -148q-164 -287 -223 -287h-4l-8 3q-43 29 -100 113.5t-101.5 167.5t-89 151.5t-68.5 73.5l-2 2q-3 -115 -7 -253.5t-6 -225t-3 -109.5 q-1 -34 -15 -47q-10 -9 -21 -9q-6 0 -13 2q-20 6 -40.5 18t-35.5 24l-14 12q2 30 4 80.5t8 209.5t8.5 292t4.5 328v83q0 139 -5 234q0 5 -31 -15q-29 -19 -43 -19q-12 0 -12 15z" />
<glyph unicode="l" horiz-adv-x="735" d="M-1 638v96q0 486 19 538l10 5t25 11t33.5 11t34.5 5q5 1 10 1q13 0 19 -5q17 -9 24.5 -29t6.5 -36l-1 -16q-17 -563 -17 -882q0 -401 27 -417q6 -3 13 -4q39 0 117 90q92 106 180.5 245t164 263t78.5 127q8 8 14.5 -0.5t9.5 -21.5l3 -13l-16.5 -27.5t-43 -70t-65 -104 t-78.5 -121t-88 -128.5t-89 -118.5t-86 -100.5q-38 -42 -73 -66q-30 -21 -51 -21q-3 0 -6 1q-66 11 -108.5 60.5t-53.5 99.5q-11 51 -13 628z" />
<glyph unicode="m" horiz-adv-x="1247" d="M0 548q1 67 10 79q89 59 109 59q18 0 34 -13t15 -26v-50t1 -115t1 -117q21 43 110 269t128 306q7 38 14 43q8 5 21 13t42 20q23 9 38 9q4 0 7 -1q48 -6 52 -41q0 -3 -24.5 -174t-41.5 -345q-8 -87 -8 -137.5t8 -64.5q9 -15 27.5 0t43 54t45 76.5t45 84.5t32.5 62 q13 51 30 59q30 16 50 22t25 4l5 -1q41 -14 43 -41q0 -6 -7.5 -89.5t-14 -169.5t-8.5 -167v-22q0 -60 10 -60q3 -2 7 -2q23 0 77 66q63 76 136.5 191.5t121 194t67.5 113.5q16 35 27 -13l2 -12q-4 -7 -12 -20t-31.5 -53t-47 -78.5t-57 -91.5t-63.5 -98t-63 -91.5t-59.5 -79 t-49 -53.5t-35.5 -22q-8 -1 -16 -1q-48 0 -90 20q-48 24 -58 54q-5 18 -8 110q-1 34 -1 70q0 60 3 123q-106 -199 -178 -208q-12 -2 -22 -2q-51 0 -85 39q-41 47 -49 122v9q0 58 25 401q-27 -57 -74 -179.5t-84.5 -215t-54.5 -111.5v-4q-3 -3 -12 -6h-2q-21 -5 -61.5 -4 t-51.5 8q-2 1 -11 8t-11 9.5t-7 9.5t-6.5 15t-1.5 19q0 1 -4 85q-3 66 -2 121v31z" />
<glyph unicode="n" horiz-adv-x="950" d="M-3 562q0 51 9 63q89 59 109 59q17 0 33.5 -14t15.5 -27q0 -3 1 -24.5t2 -63.5t3 -90q33 124 100.5 274t120.5 213q1 1 2 3t2 3q2 3 6 5l2 2q3 0 3 2q70 37 94 37h2q49 -3 53 -39q0 -5 -8.5 -122t-17.5 -251q-9 -132 -11 -256q0 -11 1 -22q0 -104 13 -121q10 -15 27 -15 t41 14q50 28 110 92t115 129t98.5 121t45.5 58q16 16 21 -20l1 -9q-12 -17 -33 -45t-81 -100.5t-114 -129.5t-119 -107.5t-109 -59.5q-15 -3 -28 -3q-47 0 -81 36q-42 46 -53 120q-6 41 -6 183v77q2 210 12 334q-65 -112 -130.5 -290t-78.5 -259q-4 -9 -58 -11h-13 q-43 0 -56 9q-15 10 -19.5 14t-11 16.5t-6.5 29.5q0 8 -4.5 71t-4.5 114z" />
<glyph unicode="o" horiz-adv-x="993" d="M1 372v17q0 54 10 102q12 56 34 119t37.5 96.5t30.5 61.5q11 17 28.5 17t39 -12.5t40 -27.5t31.5 -27l12 -13q-39 64 -39 118q0 49 32.5 84t100.5 35q80 0 121 -92q37 -78 37 -249v-34q68 -29 140 -33q18 -1 34 -1q52 0 94 10q56 14 106 35.5t77 40t34 28.5q16 22 24 -21 l1 -5q-1 0 -23.5 -14.5t-52 -31.5t-78.5 -34.5t-101 -28.5q-44 -9 -100 -9h-21q-69 2 -138 21q-9 -109 -39.5 -208t-75.5 -158q-54 -70 -118 -70q-9 0 -29 4q-160 43 -223 170q-24 46 -26 110zM197 291q1 -49 16 -80q16 -33 53 -45q5 -1 9 -1q33 0 67 42q39 51 65.5 145 t34.5 197q-92 43 -157 125q-15 -36 -29.5 -78.5t-29.5 -98.5q-14 -57 -22 -107q-7 -45 -7 -88v-11zM281 811q0 -43 49.5 -112.5t113.5 -104.5q0 60 -8 125.5t-22 97.5q-11 23 -23.5 40t-21.5 24.5t-13 7.5q-41 0 -58 -24.5t-17 -53.5z" />
<glyph unicode="p" horiz-adv-x="968" d="M0 799q5 3 12.5 7t29 13t40.5 13.5t39 3t31 -12.5q13 -10 16 -157q106 300 209 315q3 1 8 1q15 0 45 -7q40 -9 53 -27q39 -52 43 -202q1 -25 1 -49q0 -122 -19 -226q197 39 277 66.5t143 89.5l20 4h15q-68 -76 -168 -116t-293 -75q-19 -92 -54 -130q-35 -36 -87 -36h-3 q-2 0 -6 -1t-6 -1q-83 0 -180 115q-2 -149 -7.5 -346t-10.5 -337t-5 -167q0 -34 -15 -47q-9 -9 -21 -9q-6 0 -13 3q-20 6 -40.5 17.5t-35.5 23.5l-14 12q-4 993 -4 1262zM168 449l6 -3q48 -12 99 -12q65 0 135 19q21 111 21 246v34q-3 155 -34 195q-5 8 -12 8 q-49 -7 -109 -134.5t-106 -283.5v-69zM219 395q72 -76 129 -76h6q2 0 5 2.5t9 11t11 21.5q13 34 20 64q-96 -23 -165 -23h-15z" />
<glyph unicode="q" horiz-adv-x="833" d="M1 568.5q0 104.5 27 205.5t96 166q59 57 132 57q12 0 25 -2q90 -9 120 -71q12 -22 14.5 -51.5t-1 -51.5t-12 -47.5t-12.5 -33.5t-7 -15q-1 0 -3.5 -0.5t-9 -1t-11.5 0t-12 1.5t-9.5 4t-5 8t1.5 13q28 68 28 110q0 23 -8 39q-18 35 -80 41h-6q-31 0 -54 -35 q-26 -39 -40 -90q-25 -88 -29 -197q-1 -27 -1 -52q0 -76 9 -132q12 -75 31 -84h1q22 0 59 45q38 46 78 119q3 106 6 127l-8 4q-8 9 29 26q5 2 11 5q22 9 48.5 11t31.5 -9q0 -3 -3 -69t-8 -181t-9 -215q246 342 428 395l54 -7q4 -1 4 -2.5t-5 -2.5q-76 -22 -147 -71 t-122.5 -107.5t-91 -112.5t-71.5 -101.5t-45 -60.5q14 -29 50 -75.5t69.5 -86.5t61 -88.5t35.5 -88.5q2 -10 2 -19q0 -31 -20 -63q-27 -40 -92 -70q-25 -12 -71 -12q-69 0 -103 49q-46 64 -46 439q0 119 5 269q-70 -101 -130 -101q-5 0 -9 1q-81 9 -128 88t-47 183.5z M418 76q-1 -45 -1 -84q0 -235 21 -262q10 -16 13 -20.5t13 -11.5q7 -6 15 -6h5q11 3 28 11q27 13 44.5 29t22.5 35.5t5 38.5t-11 44t-21 44.5t-30 47t-34 45.5t-36.5 46.5t-33.5 42.5z" />
<glyph unicode="r" horiz-adv-x="880" d="M9 738q-11 24 -11 49q0 44 33 91q44 62 109 77q14 3 27 3q30 0 56 -16q31 -20 39 -54q4 -14 4 -30q0 -20 -6 -42q-12 -38 -25.5 -66.5t-29.5 -53.5q16 -10 36 -15.5t42 -5t37.5 1.5t36 5t24.5 4q4 1 10 -3.5t12.5 -13.5t11 -15t9.5 -15q1 -2 1 -18q-1 -38 -7 -151 q-10 -161 -21 -318l-12 -158l500 614l28 25q1 0 3 0.5t7 1.5t9 0.5t8 -1.5t6 -4q1 -2 0 -4q0 -7 -6 -18q-19 -32 -285 -340t-278 -311q-4 -1 -8 -1q-38 0 -86 52q-22 24 -27 178q-2 77 -2 150.5t2 143.5l6 141q-210 16 -253 117zM156 788q3 -32 14 -51q53 56 53 126 q0 16 -19 27q-10 6 -18 6q-14 0 -24 -18q-9 -18 -9 -49q0 -18 3 -41z" />
<glyph unicode="s" horiz-adv-x="669" d="M0 788q0 16 27 35.5t65.5 31t76.5 14.5h10q32 1 55 -17q27 -20 26 -64q0 -80 -57 -157q96 -145 114 -221q281 162 369 206q5 3 8.5 -3.5t4.5 -14.5l1 -8q-204 -111 -376 -213v-21q0 -51 -17.5 -89t-41 -58t-54.5 -31.5t-52 -14.5t-40 -3q-58 0 -58 71v9q0 12 144 102 q-16 59 -67.5 161.5t-94.5 183.5t-43 101zM84 217q0 -19 31 -23q7 -1 13 -1q36 0 61 29q24 28 24 73q0 2 -1 7t-1 7q-127 -77 -127 -92zM130 788v-6q0 -12 6 -28q6 -20 16 -39t26 -45q27 41 27 94q0 8 -1 17q-4 49 -29 49h-1q-13 0 -31 -17q-11 -11 -13 -25z" />
<glyph unicode="t" horiz-adv-x="1107" d="M0 954q-1 2 -1 6q0 10 7 29q9 26 21 33q3 3 36 13t92 25t124 30q31 289 47 315q4 2 10.5 4.5t24.5 8.5q17 6 33 9q13 3 29 3h5q18 0 29 -7q16 -10 22 -31t4 -37l-2 -16q-18 -145 -24 -215q141 24 245 25q71 0 125 -12q1 -2 2.5 -5.5t3.5 -12t1 -13.5q-1 -6 -17.5 -21 t-32.5 -27l-16 -11l-20 30q-26 4 -60 4q-91 0 -239 -26q-66 -588 -66 -777q0 -80 12 -88q10 -7 26 -6q43 0 129 46q120 64 257 168t226 175t114 93q9 6 14.5 -3.5t6.5 -22.5l1 -13q-27 -22 -72.5 -58t-166.5 -127t-220 -159q-100 -67 -199 -119q-84 -44 -124 -44q-7 0 -12 1 q-66 17 -104 69.5t-46 102.5q-1 5 -1 17q0 57 13 262q15 247 35 446q-132 -30 -258 -72q-10 0 -14 8z" />
<glyph unicode="u" horiz-adv-x="888" d="M2 299q-3 27 -3 70q-1 79 9 207q14 200 35 223q8 5 21.5 13t42.5 20q23 9 38 9q4 0 7 -1q47 -5 51 -41q0 -5 -11.5 -92t-23.5 -187q-14 -101 -18 -196q-1 -23 -1 -42q0 -58 11 -73q9 -15 27.5 0t42.5 53.5t44.5 76t44.5 84.5t33 62q13 51 31 60q30 16 50 22t25 4l5 -2 q43 -15 43 -44q0 -15 -6 -87q-8 -82 -16 -170q-6 -87 -8 -166q0 -9 -1 -18q0 -61 10 -64q3 -2 7 -2q24 0 78 65q63 76 137 193t120.5 194t67.5 114q16 35 27 -13l2 -12q-4 -7 -12 -20t-31.5 -53t-47 -79t-57 -91.5t-63.5 -98t-63 -92t-59.5 -79t-49 -53.5t-35.5 -22 q-8 -1 -16 -1q-47 0 -89 21q-49 24 -59 54q-5 18 -8 110q-1 34 -1 70q0 60 3 123q-107 -200 -176 -209q-12 -2 -23 -2q-52 -1 -86 39q-41 48 -49 123z" />
<glyph unicode="v" horiz-adv-x="921" d="M0 612v12q0 69 20 87q27 19 46 27.5t24 7.5l6 -1q41 -5 47 -34q1 -5 13.5 -145.5t29 -270.5t31.5 -135q3 -1 5 -1q22 0 62 65q44 73 88.5 177.5t75 182.5t39.5 106q3 6 5 8q0 7 2 11q-53 43 -84 96q-13 19 -19.5 44.5t-5.5 53.5t20 54.5t54 41.5q18 7 32 8q50 0 57 -88 q1 -16 2 -34q0 -70 -22 -174q48 -41 108 -67q60 -24 138 -34q21 -3 43 -4q57 0 117 19q3 -1 7 -4l11 -11q4 -4 4 -8t-4 -8q-6 -14 -74 -16h-8q-66 0 -164 25q-104 26 -184 83q0 -3 -1 -7.5t-1 -6.5q-4 -11 -11.5 -30.5t-29.5 -76t-43.5 -108.5t-50 -115.5t-53 -110 t-48.5 -80t-40 -36.5q-23 -5 -46 -5q-31 0 -61 10q-52 16 -65 44q-7 15 -23.5 94t-31.5 176.5t-17 177.5zM431 852q9 -55 69 -115q10 53 14 79q4 30 4 60q0 29 -10 40q-7 8 -20 8q-6 0 -13 -2q-45 -13 -45 -55q0 -7 1 -15z" />
<glyph unicode="w" horiz-adv-x="1263" d="M4 644q-3 41 -4 70q0 32 4 50q88 59 111 59q16 0 33 -14t16 -27q0 -2 29 -428q15 29 73.5 151t98.5 202q4 2 10 6q24 16 41 23.5t22 7.5l4 -1q43 -7 47 -34q1 -4 21 -195t44.5 -371t39.5 -186q2 -1 4 -1q30 0 81 158q55 168 106 370l51 204q0 1 1 4t1 4t1 4.5t1 4.5 q-46 41 -84 96q-13 20 -19.5 45.5t-5 53.5t20.5 54t55 41q18 8 32 7q46 0 55 -79q2 -18 2 -40q0 -70 -22 -176q49 -41 109 -66q61 -25 139 -34q21 -2 41 -2q58 0 119 18q3 -1 7 -4l11 -11q4 -4 4 -9t-4 -9q-9 -12 -76 -14h-10q-65 0 -161 24q-104 26 -183 82q-1 -2 -2 -7 t-2 -7q-167 -740 -245 -756q-23 -5 -46 -5q-31 -1 -61 9q-52 16 -65 45q-12 27 -48 233.5t-47 348.5q-113 -249 -157 -283q-3 -8 -57 -9h-9q-45 0 -59 9q-3 2 -8.5 5.5t-8 5.5t-7 5.5t-6.5 7t-4.5 9t-3.5 12t-1 14.5q0 11 -11.5 125.5t-17.5 199.5zM777 850q9 -56 69 -117 q10 48 14.5 79t4.5 60q0 28 -11 40q-7 8 -19 8q-6 0 -14 -2q-45 -11 -45 -53q0 -7 1 -15z" />
<glyph unicode="x" horiz-adv-x="1318" d="M4 37q-6 11 -6 20q0 14 14 25q18 15 32 1q5 -5 7 -15q5 -32 33 -52q27 -19 68 -18h4q57 0 231 166q-91 158 -176 317t-84 172l-13 9q-17 18 35 35l50 12q17 3 31 3q20 0 35 -6q26 -11 30 -26q11 -27 215 -391q297 331 459 684l13 22q5 6 8.5 5.5t4.5 -5.5q23 -98 23 -111 v-2l-1 1q-4 7 -22 65q-81 -168 -208 -349.5t-263 -334.5q124 -221 164 -297q170 281 340.5 440.5t296.5 194.5l54 -3q4 -1 4 -2t-5 -3q-67 -19 -130.5 -52.5t-120 -81.5t-103 -94t-96 -110t-82 -108t-78.5 -110.5t-68 -96.5q-11 -21 -26.5 -41.5t-40 -48.5t-33.5 -39 q-5 -1 -9 -1h-3q-4 1 -15 21t-15.5 31.5t-12.5 30.5q-3 5 -21.5 36.5t-54.5 92.5t-66 112q-176 -176 -249 -176q-60 0 -94 21t-56 57z" />
<glyph unicode="y" horiz-adv-x="1013" d="M0 496v7q0 218 31 306q9 19 24.5 28.5t32 8.5t31.5 -6t24.5 -14t10.5 -17v-6q0 -25 -4 -151q-6 -149 -6 -290.5t14 -148.5q13 -6 34.5 33.5t45 109t49 155t49.5 175t43.5 164.5t33.5 127.5t17 60.5q3 6 6 9l-4 24q-21 17 5 19h8q33 0 68 -20q28 -16 32 -36 q5 -22 12.5 -201.5t12.5 -410.5q2 -109 2 -213q0 -116 -3 -227q111 104 227 248.5t179 247.5q50 81 50 103q0 5 -3 7q-10 4 7 10q22 8 30 0q7 -7 7 -18.5t-4 -19.5l-3 -7q-80 -147 -217 -315.5t-273 -292.5q-10 -247 -37 -289q-34 -49 -104 -49q-32 0 -70 12 q-85 28 -146 103q-58 71 -58 158v9l53 -2h2q20 -32 57 -55q28 -16 51 -16q8 0 15 2q62 21 137 78q2 81 2 182q0 151 -5 346q-9 325 -22 524q-25 -103 -53.5 -211t-69.5 -248.5t-78.5 -230.5t-60.5 -92q-13 -1 -25 -1q-44 0 -83 16q-49 21 -60 50q-13 41 -14 265zM229 -205 q23 -43 63 -76t83 -47q9 -3 17 -5t14 -3h3l7 1q6 2 8.5 2t7.5 5.5t6 6.5t6.5 9t6.5 9q11 20 18 164q-105 -81 -158 -84h-10q-37 0 -72 18z" />
<glyph unicode="z" horiz-adv-x="884" d="M2 721q-3 15 -3 32q0 33 11 76q4 13 20 21q15 7 35 8h3q21 0 40.5 -4.5t32.5 -13.5t11 -19q-3 -14 -2 -28q0 -73 71 -142q85 -82 211 -86q3 -1 7 -2.5t9.5 -7.5t2.5 -14q-2 -8 -34 -59.5t-63 -98.5l-32 -47q5 0 13 0.5t31.5 -1t45.5 -5.5t49.5 -16t48.5 -29.5t37.5 -48.5 t21.5 -70q3 -22 3 -47q0 -130 -80 -324q48 52 93.5 108t103 142.5t99.5 170.5t71.5 186.5t29.5 195.5q4 2 10 4.5t19 7.5q12 5 20 3q6 -2 6 -8q0 -81 -88 -295q-58 -140 -122 -239.5t-124.5 -177.5t-109.5 -137.5t-62 -87.5q-7 -10 -8 -10l-2 -4q-54 -12 -81.5 -12t-27.5 12 q0 4 18.5 52t42 112t41 142t21.5 144q1 9 1 17q0 57 -24 101q-27 50 -87 61q-18 3 -33.5 -6t-22.5 -19l-6 -10q-2 1 -13.5 0t-26 7.5t-17.5 25.5q0 28 72 49q23 31 49.5 76.5t41.5 75.5l15 30q-11 0 -30 1t-71 9t-96 21.5t-90.5 41.5t-68.5 66q-28 46 -33 70z" />
<glyph unicode="{" horiz-adv-x="591" d="M-0.5 -5.5q-4.5 43.5 10.5 93.5q17 88 43 186q38 144 43 185q7 50 4 90.5t-12.5 71.5t-20 51t-18.5 30l-8 11q14 14 35 36.5t59.5 76t44.5 89.5q14 78 25 197q19 155 26 193q10 59 47.5 102.5t83.5 64t90.5 32t74.5 12.5l30 2q-9 -1 -24 -4.5t-54 -21t-71 -42.5 t-61.5 -74.5t-37.5 -111.5q-2 -22 -9.5 -78t-10.5 -88q-13 -127 -23 -176q-18 -97 -74.5 -147.5t-117.5 -67.5l65 -60q61 -79 35 -229q-12 -76 -41 -172q-35 -144 -39 -164q-13 -94 -4 -158.5t33.5 -104.5t50 -61.5t44.5 -29.5l20 -7l-10 2.5t-26.5 8.5t-38 16t-43 25 t-43 35.5t-38.5 47.5t-28 61.5t-11.5 77z" />
<glyph unicode="|" horiz-adv-x="477" d="M183.5 355q-9.5 364 6.5 646t43 381q3 8 -18.5 63.5t-19.5 63.5q4 7 48 10.5t84 -10.5t33 -51q-7 -17 -31 -384t-40 -773.5t0 -493.5q10 -63 -24 -82q-20 -10 -30 3l-2 6q-40 257 -49.5 621z" />
<glyph unicode="}" horiz-adv-x="585" d="M0 -287q4 -1 11 -1t28.5 3.5t41.5 11.5t46.5 28.5t48 50t41 79.5t29.5 113q4 29 14 168q11 153 14 178q27 153 107 201l80 33q-22 17 -42 38.5t-41 55t-30 80t-2 98.5q8 50 35 174q6 26 16.5 81t16.5 83q11 66 0.5 119t-36 93t-52 66.5t-46.5 39.5l-20 14q11 -5 29 -13.5 t63 -39t78 -65.5t56 -90.5t14 -115.5q-7 -55 -37 -190q-24 -110 -37 -193q-4 -36 13 -97t36 -104l19 -43q-4 -2 -11 -6.5t-26.5 -21.5t-36 -39.5t-34 -62t-26.5 -85.5q-7 -41 -16 -190q-5 -80 -16 -191q-7 -64 -28.5 -113t-51 -76t-63.5 -44.5t-66.5 -23t-59 -6.5t-43.5 1z " />
<glyph unicode="~" horiz-adv-x="722" d="M0 236q4 4 10.5 11t30.5 24.5t50.5 31t69 24.5t87.5 11q53 0 95.5 -18.5t79.5 -37t77 -18.5q45 0 84.5 17.5t55.5 34.5l17 18l11 -6q-2 -5 -6.5 -14t-22.5 -32t-40 -40.5t-60.5 -32t-83.5 -14.5q-47 0 -87.5 12t-64.5 26.5t-58 26.5t-71 12q-40 0 -81 -10t-62 -20 l-21 -11z" />
<glyph unicode="&#xad;" d="M0 297l10 57q256 40 525 25l-9 -64q-20 2 -46.5 4t-33.5 3q-184 0 -227 -3q-127 -7 -219 -22z" />
<glyph unicode="&#xc0;" horiz-adv-x="1286" />
<glyph unicode="&#x2000;" horiz-adv-x="780" />
<glyph unicode="&#x2001;" horiz-adv-x="1561" />
<glyph unicode="&#x2002;" horiz-adv-x="780" />
<glyph unicode="&#x2003;" horiz-adv-x="1561" />
<glyph unicode="&#x2004;" horiz-adv-x="520" />
<glyph unicode="&#x2005;" horiz-adv-x="390" />
<glyph unicode="&#x2006;" horiz-adv-x="260" />
<glyph unicode="&#x2007;" horiz-adv-x="260" />
<glyph unicode="&#x2008;" horiz-adv-x="195" />
<glyph unicode="&#x2009;" horiz-adv-x="312" />
<glyph unicode="&#x200a;" horiz-adv-x="86" />
<glyph unicode="&#x2010;" d="M0 297l10 57q256 40 525 25l-9 -64q-20 2 -46.5 4t-33.5 3q-184 0 -227 -3q-127 -7 -219 -22z" />
<glyph unicode="&#x2011;" d="M0 297l10 57q256 40 525 25l-9 -64q-20 2 -46.5 4t-33.5 3q-184 0 -227 -3q-127 -7 -219 -22z" />
<glyph unicode="&#x2012;" d="M0 297l10 57q256 40 525 25l-9 -64q-20 2 -46.5 4t-33.5 3q-184 0 -227 -3q-127 -7 -219 -22z" />
<glyph unicode="&#x2013;" horiz-adv-x="1109" d="M0 297l19 57q490 40 1005 25l-17 -64q-39 2 -89.5 4t-63.5 3q-353 0 -435 -3q-243 -7 -419 -22z" />
<glyph unicode="&#x2014;" horiz-adv-x="2133" d="M0 297l38 57q980 40 2010 25l-34 -64q-77 2 -178.5 4t-128.5 3q-704 0 -869 -3q-486 -7 -838 -22z" />
<glyph unicode="&#x202f;" horiz-adv-x="312" />
<glyph unicode="&#x205f;" horiz-adv-x="390" />
<glyph unicode="&#x25fc;" horiz-adv-x="1003" d="M0 0v1004h1004v-1004h-1004z" />
</font>
</defs>
</svg>
