<svg xmlns="http://www.w3.org/2000/svg" viewBox="0 0 82.54 117.14"><defs><style>.cls-1{fill:#fff;}</style></defs><title>service2</title><g id="Layer_2" data-name="Layer 2"><g id="Layer_1-2" data-name="Layer 1"><rect class="cls-1" x="64.26" y="83.86" width="3" height="31.78"/><rect class="cls-1" x="51.35" y="114.13" width="28.81" height="3"/><path class="cls-1" d="M65.76,85.36A16.8,16.8,0,0,1,49,68.58v-1a1.5,1.5,0,0,1,1.5-1.5H81a1.5,1.5,0,0,1,1.5,1.5v1A16.8,16.8,0,0,1,65.76,85.36ZM52,69.07a13.79,13.79,0,0,0,27.55,0Z"/><path class="cls-1" d="M79.54,67.65l-.93-18.29H52.9L52,67.65l-3-.15,1-19.71a1.5,1.5,0,0,1,1.5-1.42H80a1.5,1.5,0,0,1,1.5,1.42l1,19.71Z"/><path class="cls-1" d="M65.76,85.36A16.8,16.8,0,0,1,49,68.58v-1h3v1a13.79,13.79,0,0,0,27.57,0v-1h3v1A16.8,16.8,0,0,1,65.76,85.36Z"/><path class="cls-1" d="M38.1,117.14H1.5a1.5,1.5,0,0,1-1.5-1.5V85.15a1.5,1.5,0,0,1,1.5-1.5H38.1a1.5,1.5,0,0,1,1.5,1.5v30.49A1.5,1.5,0,0,1,38.1,117.14Zm-35.1-3H36.6V86.65H3Z"/><path class="cls-1" d="M38.1,55.88H1.5A1.5,1.5,0,0,1,0,54.38V45.33A19.87,19.87,0,0,1,12,27.15v-17a1.5,1.5,0,0,1,1.5-1.5H26.1a1.5,1.5,0,0,1,1.5,1.5v17a19.87,19.87,0,0,1,12,18.18v9.05A1.5,1.5,0,0,1,38.1,55.88ZM3,52.88H36.6V45.33a16.85,16.85,0,0,0-11-15.76,1.5,1.5,0,0,1-1-1.41V11.63H15V28.17a1.5,1.5,0,0,1-1,1.41A16.86,16.86,0,0,0,3,45.33Z"/><path class="cls-1" d="M26.1,11.63H13.5a1.5,1.5,0,0,1-1.5-1.5V1.5A1.5,1.5,0,0,1,13.5,0H26.1a1.5,1.5,0,0,1,1.5,1.5v8.63A1.5,1.5,0,0,1,26.1,11.63ZM15,8.63H24.6V3H15Z"/><path class="cls-1" d="M38.1,86.65H1.5A1.5,1.5,0,0,1,0,85.15V54.38a1.5,1.5,0,0,1,1.5-1.5H38.1a1.5,1.5,0,0,1,1.5,1.5V85.15A1.5,1.5,0,0,1,38.1,86.65ZM3,83.65H36.6V55.88H3Z"/><rect class="cls-1" x="13.46" y="63.51" width="12.67" height="3"/><rect class="cls-1" x="9.8" y="71.01" width="20" height="3"/></g></g></svg>