<svg xmlns="http://www.w3.org/2000/svg" viewBox="0 0 117.58 134.61"><defs><style>.cls-1{fill:#fff;}</style></defs><title>service3</title><g id="Layer_2" data-name="Layer 2"><g id="Layer_1-2" data-name="Layer 1"><path class="cls-1" d="M43.14,105.63h-7.5l-.6,0-.23,0a1.5,1.5,0,0,1-1.42-1.5V74.18a1.5,1.5,0,0,1,1.43-1.5l.24,0,.58,0h7.5a1.5,1.5,0,0,1,1.5,1.5v30A1.5,1.5,0,0,1,43.14,105.63Zm-6.75-3h5.25v-27H36.39Z"/><path class="cls-1" d="M43.14,33h-7.5c-.2,0-.4,0-.6,0l-.23,0a1.5,1.5,0,0,1-1.42-1.5V1.54A1.5,1.5,0,0,1,34.82,0l.25,0,.57,0h7.5a1.5,1.5,0,0,1,1.5,1.5v30A1.5,1.5,0,0,1,43.14,33Zm-6.75-3h5.25V3H36.39Z"/><path class="cls-1" d="M34.89,105.59h-.07a16.5,16.5,0,0,1-11.73-5.76L23,99.77a59.42,59.42,0,0,1,0-93.9l.08-.06A16.51,16.51,0,0,1,34.81,0a1.5,1.5,0,0,1,1.57,1.5V31.46a1.5,1.5,0,0,1-.47,1.09,1.47,1.47,0,0,1-1.11.41,16.45,16.45,0,0,1-11-5,43.4,43.4,0,0,0,0,49.69,16.46,16.46,0,0,1,11-5,1.52,1.52,0,0,1,1.11.41,1.5,1.5,0,0,1,.47,1.09v29.91a1.5,1.5,0,0,1-1.5,1.5ZM24.56,97.17a1.41,1.41,0,0,1,.57.42,13.48,13.48,0,0,0,8.26,4.83V75.85A13.46,13.46,0,0,0,24.9,81a1.5,1.5,0,0,1-1.19.59h0A1.5,1.5,0,0,1,22.51,81a46.39,46.39,0,0,1,0-56.33,1.5,1.5,0,0,1,1.19-.59h0a1.5,1.5,0,0,1,1.19.59,13.45,13.45,0,0,0,8.49,5.13V3.21A13.49,13.49,0,0,0,25.13,8a1.5,1.5,0,0,1-.62.46,56.42,56.42,0,0,0,.05,88.68Z"/><path class="cls-1" d="M36.39,134.61h-3c0-.34-.34-.6-1.29-1.19s-2.71-1.67-2.71-3.74,1.63-3.08,2.71-3.74,1.29-.85,1.29-1.19-.34-.6-1.29-1.19-2.71-1.67-2.71-3.74,1.63-3.08,2.71-3.74,1.29-.85,1.29-1.19v-10.8h3v10.8c0,2.07-1.63,3.08-2.71,3.74s-1.29.85-1.29,1.19.34.6,1.29,1.19,2.71,1.67,2.71,3.74-1.63,3.08-2.71,3.74-1.29.85-1.29,1.19.34.6,1.29,1.19S36.39,132.54,36.39,134.61Z"/><path class="cls-1" d="M83.55,69.52h0a34.58,34.58,0,0,1-7.45-.82,34.11,34.11,0,0,1-17.25-9.63L43.29,61.35A1.5,1.5,0,0,1,41.82,59l9-13.53a33.69,33.69,0,0,1-.73-17.3A34.19,34.19,0,0,1,83.28,1.64a34.62,34.62,0,0,1,7.45.82,34.06,34.06,0,0,1,21.44,14.91,33.58,33.58,0,0,1,4.6,25.59A34.19,34.19,0,0,1,83.55,69.52ZM59.4,56a1.5,1.5,0,0,1,1.1.48,31.13,31.13,0,0,0,16.24,9.32,31.6,31.6,0,0,0,6.8.75,31.17,31.17,0,0,0,30.3-24.22A30.6,30.6,0,0,0,109.65,19,31.08,31.08,0,0,0,90.08,5.38a31.59,31.59,0,0,0-6.81-.75A31.17,31.17,0,0,0,53,28.86a30.68,30.68,0,0,0,.88,16.4,1.5,1.5,0,0,1-.17,1.31L46.17,57.9l13-1.91Z"/><path class="cls-1" d="M95.19,54.16h-23a1.5,1.5,0,0,1-1.5-1.5V40.84A9.15,9.15,0,1,1,74.64,23a9.15,9.15,0,0,1,18.16,0,9.15,9.15,0,1,1,3.9,17.86V52.66A1.5,1.5,0,0,1,95.19,54.16Zm-21.46-3h20V39.46a1.5,1.5,0,0,1,1.5-1.5A6.15,6.15,0,1,0,92,26.53,1.5,1.5,0,0,1,89.8,25a6.15,6.15,0,1,0-12.17,0,1.5,1.5,0,0,1-2.25,1.5A6.15,6.15,0,1,0,72.23,38a1.5,1.5,0,0,1,1.5,1.5Z"/><path class="cls-1" d="M72.23,41V38a6.16,6.16,0,0,0,3.08-.82l1.5,2.6A9.17,9.17,0,0,1,72.23,41Z"/><path class="cls-1" d="M95.19,41a9.1,9.1,0,0,1-7.2-3.5l2.36-1.85A6.12,6.12,0,0,0,95.19,38Z"/><rect class="cls-1" x="72.23" y="45.62" width="7.34" height="3"/><rect class="cls-1" x="84.34" y="45.62" width="10.85" height="3"/></g></g></svg>