<svg xmlns="http://www.w3.org/2000/svg" viewBox="0 0 129.64 102.38"><defs><style>.cls-1{fill:#fff;}</style></defs><title>service1</title><g id="Layer_2" data-name="Layer 2"><g id="Layer_1-2" data-name="Layer 1"><path class="cls-1" d="M103.78,64.41a1.5,1.5,0,0,1-1.43-1.94,38.4,38.4,0,0,0,0-22.55,1.5,1.5,0,0,1,2.49-1.5l11.72,11.72a1.5,1.5,0,0,1,0,2.12L104.85,64A1.5,1.5,0,0,1,103.78,64.41Zm2.68-20.14a41.55,41.55,0,0,1,0,13.84l6.92-6.92Z"/><path class="cls-1" d="M54.1,14.72A1.5,1.5,0,0,1,53,12.16L64.76.44a1.5,1.5,0,0,1,2.12,0L78.6,12.16a1.5,1.5,0,0,1-1.5,2.49,38.63,38.63,0,0,0-22.56,0A1.5,1.5,0,0,1,54.1,14.72ZM65.82,10a41.45,41.45,0,0,1,6.92.58L65.82,3.62,58.9,10.54A41.46,41.46,0,0,1,65.82,10Z"/><path class="cls-1" d="M65.82,102.38a1.5,1.5,0,0,1-1.06-.44L53,90.22a1.5,1.5,0,0,1,1.5-2.49,38.62,38.62,0,0,0,22.56,0,1.5,1.5,0,0,1,1.5,2.49L66.88,101.94A1.5,1.5,0,0,1,65.82,102.38ZM58.9,91.84l6.92,6.92,6.92-6.92A41.77,41.77,0,0,1,58.9,91.84Z"/><path class="cls-1" d="M27.85,64.41A1.5,1.5,0,0,1,26.79,64L15.07,52.25a1.5,1.5,0,0,1,0-2.12L26.79,38.41a1.5,1.5,0,0,1,2.49,1.5,38.45,38.45,0,0,0,0,22.56,1.5,1.5,0,0,1-1.43,1.94Zm-9.6-13.22,6.92,6.92a41.56,41.56,0,0,1,0-13.84Z"/><path class="cls-1" d="M65.82,92.42A41.23,41.23,0,1,1,107,51.19,41.27,41.27,0,0,1,65.82,92.42Zm0-79.46A38.23,38.23,0,1,0,104,51.19,38.27,38.27,0,0,0,65.82,13Z"/><path class="cls-1" d="M78.85,26.88a27.46,27.46,0,0,0-3.58-1.61l1-2.82a30.53,30.53,0,0,1,4,1.78Z"/><path class="cls-1" d="M35.75,56.73a31,31,0,0,1-.5-5.55A30.6,30.6,0,0,1,70.78,21l-.49,3a27.59,27.59,0,0,0-32,27.21,27.94,27.94,0,0,0,.45,5Z"/><path class="cls-1" d="M65.82,81.76c-.49,0-1,0-1.46,0l.14-3a28.43,28.43,0,0,0,4.15-.11l.3,3A30.89,30.89,0,0,1,65.82,81.76Z"/><path class="cls-1" d="M73.95,80.67l-.8-2.89A27.64,27.64,0,0,0,93.39,51.19a27.94,27.94,0,0,0-.27-3.87l3-.42A30.62,30.62,0,0,1,73.95,80.67Z"/><path class="cls-1" d="M9,28.82a9,9,0,0,1-9-9V9.94H3v9.89a6,6,0,1,0,12,0V9.94h3v9.89A9,9,0,0,1,9,28.82Z"/><rect class="cls-1" x="7.49" y="9.94" width="3" height="45.96"/><path class="cls-1" d="M9,93.41a5.36,5.36,0,0,1-5.35-5.35V59.76a5.35,5.35,0,1,1,10.7,0v28.3A5.36,5.36,0,0,1,9,93.41Zm0-36a2.35,2.35,0,0,0-2.35,2.35v28.3a2.35,2.35,0,0,0,4.7,0V59.76A2.35,2.35,0,0,0,9,57.41Z"/><path class="cls-1" d="M125.78,56.43h-3V45.2a7.74,7.74,0,0,1-6-3c-5.28-6.71-1.5-23,1.24-30.73,2.29-6.42,6-6.06,6.45-6A1.5,1.5,0,0,1,125.78,7Zm-3-47.21a8.44,8.44,0,0,0-1.9,3.31c-3.57,10-5.38,23.2-1.71,27.86a4.71,4.71,0,0,0,3.61,1.82Z"/><path class="cls-1" d="M124.28,93.41a5.36,5.36,0,0,1-5.35-5.35V59.76a5.35,5.35,0,1,1,10.7,0v28.3A5.36,5.36,0,0,1,124.28,93.41Zm0-36a2.35,2.35,0,0,0-2.35,2.35v28.3a2.35,2.35,0,0,0,4.7,0V59.76A2.36,2.36,0,0,0,124.28,57.41Z"/></g></g></svg>